<?xml version="1.0" encoding="UTF-8"?>
<!DOCTYPE svg PUBLIC "-//W3C//DTD SVG 1.1//EN" "http://www.w3.org/Graphics/SVG/1.1/DTD/svg11.dtd">
<!-- Creator: CorelDRAW X8 -->
<svg xmlns="http://www.w3.org/2000/svg" xml:space="preserve" width="911px" height="346px" version="1.1" style="shape-rendering:geometricPrecision; text-rendering:geometricPrecision; image-rendering:optimizeQuality; fill-rule:evenodd; clip-rule:evenodd"
viewBox="0 0 91100 34595"
 xmlns:xlink="http://www.w3.org/1999/xlink">
 <defs>
  <style type="text/css">
   <![CDATA[
    .str5 {stroke:black;stroke-width:86.4873}
    .str6 {stroke:black;stroke-width:86.4873}
    .str2 {stroke:black;stroke-width:86.4873}
    .str7 {stroke:#333333;stroke-width:57.6582}
    .str3 {stroke:black;stroke-width:172.975}
    .str8 {stroke:black;stroke-width:28.8291}
    .str4 {stroke:black;stroke-width:23.0633}
    .str1 {stroke:black;stroke-width:86.4873;stroke-linecap:round;stroke-linejoin:round}
    .str0 {stroke:black;stroke-width:86.4873;stroke-linecap:round;stroke-linejoin:round}
    .fil5 {fill:none}
    .fil7 {fill:none;fill-rule:nonzero}
    .fil3 {fill:#5B5B5B}
    .fil6 {fill:#4190F0}
    .fil1 {fill:#4288E3}
    .fil9 {fill:#4D4D4D}
    .fil11 {fill:#B9BEC8}
    .fil0 {fill:#D3D6DC}
    .fil4 {fill:white}
    .fil8 {fill:black;fill-rule:nonzero}
    .fil12 {fill:black;fill-rule:nonzero}
    .fil2 {fill:#4288E3;fill-rule:nonzero}
    .fil10 {fill:#D3D6DC;fill-rule:nonzero}
   ]]>
  </style>
 </defs>
 <g id="Слой_x0020_1">
  <metadata id="CorelCorpID_0Corel-Layer"/>
  <path class="fil0 str0" d="M28478 12723l-237 0c-22,0 -40,17 -40,38l0 470c0,21 18,37 40,37l237 0c22,0 40,-16 40,-37l0 -470c0,-21 -18,-38 -40,-38z"/>
  <polygon class="fil1 str0" points="81980,24588 80624,22731 81271,22264 83199,21981 84656,24055 "/>
  <polygon class="fil1 str0" points="71676,22290 72326,22752 71054,24539 68398,24055 69749,22017 "/>
  <polygon class="fil2 str0" points="80088,7339 72876,7362 72868,8210 80111,8227 "/>
  <polygon class="fil1 str0" points="72575,6990 81426,6990 81497,3510 72274,3510 "/>
  <polygon class="fil2 str0" points="72876,7362 81053,7362 81354,6990 72575,6990 "/>
  <polygon class="fil2 str0" points="81497,2908 81497,3510 72274,3510 72274,2908 "/>
  <path class="fil0 str0" d="M81760 5427c14,-670 -110,-1216 -277,-1219l-50 2425c167,3 313,-537 327,-1206z"/>
  <path class="fil3 str0" d="M73230 2967c18,16 28,34 28,52 0,81 -191,146 -426,146 -235,0 -426,-65 -426,-146 0,-18 10,-36 28,-52 61,56 216,95 398,95 182,0 337,-39 398,-95z"/>
  <path class="fil0 str0" d="M72832 2770c235,0 426,65 426,146 0,80 -191,146 -426,146 -235,0 -426,-66 -426,-146 0,-81 191,-146 426,-146z"/>
  <path class="fil3 str0" d="M81351 2967c18,16 28,34 28,52 0,81 -191,146 -426,146 -235,0 -426,-65 -426,-146 0,-18 10,-36 28,-52 61,56 216,95 398,95 182,0 337,-39 398,-95z"/>
  <path class="fil0 str0" d="M80953 2770c235,0 426,65 426,146 0,80 -191,146 -426,146 -235,0 -426,-66 -426,-146 0,-81 191,-146 426,-146z"/>
  <path class="fil1 str0" d="M82206 24031l2450 0 536 202 0 764c0,111 -92,202 -206,202l-591 0c-8,-159 -143,-287 -308,-287l-942 0c-164,0 -300,128 -308,287l-631 0c-113,0 -206,-91 -206,-202l0 -764c0,-111 93,-202 206,-202z"/>
  <path class="fil1 str0" d="M70848 24031l-2450 0 -536 202 0 764c0,111 93,202 206,202l591 0c8,-159 144,-287 309,-287l941 0c165,0 300,128 309,287l630 0c113,0 206,-91 206,-202l0 -764c0,-111 -93,-202 -206,-202z"/>
  <circle class="fil1" cx="76482" cy="16273" r="8833"/>
  <polygon class="fil1 str1" points="32568,24031 32568,23957 31389,23960 31154,23718 29064,23718 29064,8832 31154,8832 31389,8640 31966,8619 32228,7559 47594,7559 47733,7807 47733,22830 47733,23957 47329,23957 47329,24031 "/>
  <path class="fil1 str0" d="M32075 2946l7802 0c158,0 346,-68 313,313l-317 3674 0 0 -7794 4 -317 -3678c-33,-381 471,-313 313,-313z"/>
  <path class="fil1 str0" d="M42413 7217c373,-250 619,-676 619,-1158 0,-770 -624,-1395 -1394,-1395 -770,0 -1394,625 -1394,1395 0,457 220,862 560,1116l0 384 1609 0 0 -342z"/>
  <path class="fil4 str0" d="M41638 6805c412,0 746,-334 746,-746 0,-413 -334,-747 -746,-747 -413,0 -747,334 -747,747 0,412 334,746 747,746z"/>
  <path class="fil1 str0" d="M47954 7559l3291 0c122,0 221,102 221,227l0 16987c0,124 -99,227 -221,227l-3053 0 0 -969 -459 0 0 -16245c0,-125 100,-227 221,-227z"/>
  <path class="fil3 str0" d="M31972 2974c-5,13 -7,27 -7,40 0,123 177,223 395,223 218,0 394,-100 394,-223 0,-13 -2,-27 -6,-40 -34,71 -195,126 -388,126 -194,0 -354,-55 -388,-126z"/>
  <path class="fil0 str0" d="M32360 2792c-218,0 -395,69 -395,154 0,85 177,154 395,154 218,0 394,-69 394,-154 0,-85 -176,-154 -394,-154z"/>
  <path class="fil3 str0" d="M39204 2974c-4,13 -6,27 -6,40 0,123 176,223 394,223 218,0 395,-100 395,-223 0,-13 -3,-27 -7,-40 -34,71 -194,126 -388,126 -193,0 -354,-55 -388,-126z"/>
  <path class="fil0 str0" d="M37656 4213c-661,0 -1196,542 -1196,1210 0,668 535,1210 1196,1210 660,0 1196,-542 1196,-1210 0,-668 -536,-1210 -1196,-1210z"/>
  <path class="fil0 str0" d="M34324 4213c-660,0 -1196,542 -1196,1210 0,668 536,1210 1196,1210 661,0 1196,-542 1196,-1210 0,-668 -535,-1210 -1196,-1210z"/>
  <polygon class="fil5 str0" points="32772,3529 39236,3529 39236,6776 39151,6933 32865,6936 32772,6776 "/>
  <line class="fil5 str0" x1="31785" y1="3530" x2="40167" y2= "3526" />
  <line class="fil5 str0" x1="32377" y1="2504" x2="32377" y2= "3754" />
  <path class="fil0 str0" d="M39592 2792c-218,0 -394,69 -394,154 0,85 176,154 394,154 218,0 395,-69 395,-154 0,-85 -177,-154 -395,-154z"/>
  <path class="fil1 str0" d="M32473 7317zm0 0l7019 0 0 242 -7019 0 0 -242z"/>
  <polyline class="fil5 str0" points="40959,7072 41080,6947 42205,6947 42316,7072 "/>
  <line class="fil5 str0" x1="40670" y1="6066" x2="42513" y2= "6066" />
  <line class="fil5 str0" x1="41638" y1="4992" x2="41638" y2= "9323" />
  <path class="fil1 str0" d="M40804 7317zm0 0l1609 0 0 242 -1609 0 0 -242z"/>
  <path class="fil5 str0" d="M31847 10677c0,-333 0,-665 0,-997 2582,0 5163,0 7745,0 146,148 294,305 281,699l-6851 -9"/>
  <polyline class="fil5 str0" points="42505,7687 42561,7559 43246,7559 43393,7908 44735,7908 "/>
  <polyline class="fil5 str0" points="46965,7687 46909,7559 46224,7559 46077,7908 44735,7908 "/>
  <polyline class="fil5 str0" points="31981,9680 32228,8612 47594,8612 47733,8878 "/>
  <polyline class="fil5 str0" points="31922,9538 32228,8178 47594,8178 47733,8450 "/>
  <polyline class="fil5 str0" points="31922,9096 32228,7908 47594,7908 47733,8146 "/>
  <polyline class="fil5 str0" points="31922,8797 32228,7559 47594,7559 47733,7807 "/>
  <path class="fil5 str0" d="M33039 10677c15,-266 -55,-630 -128,-997l7 881 122 -3"/>
  <path class="fil5 str0" d="M47772 9680c-2294,0 -4645,0 -6970,0 -146,148 -294,305 -281,699l6852 -9"/>
  <path class="fil5 str0" d="M47356 10677c-15,-266 55,-630 128,-997l-7 881 -123 -3"/>
  <polyline class="fil5 str0" points="43127,21123 43497,21123 43497,21021 "/>
  <polyline class="fil5 str0" points="43127,21123 42756,21123 42756,21021 "/>
  <path class="fil1 str0" d="M42845 21123zm0 0l563 0 0 2908 -563 0 0 -2908z"/>
  <polyline class="fil5 str0" points="36770,21123 37140,21123 37140,21021 "/>
  <polyline class="fil5 str0" points="36770,21123 36400,21123 36400,21021 "/>
  <path class="fil1 str0" d="M36489 21123zm0 0l562 0 0 2908 -562 0 0 -2908z"/>
  <path class="fil1 str0" d="M32246 24031zm0 0l15946 0 0 1168 -15946 0 0 -1168z"/>
  <path class="fil1 str0" d="M55766 23335c345,0 626,-217 626,-483l0 -13116c0,-266 -281,-483 -626,-483l0 14082z"/>
  <path class="fil1 str0" d="M51466 7786l2506 0c495,0 1196,978 1794,1467 0,4693 0,9386 0,14080 -560,489 -1257,1467 -1680,1467l-2620 0c0,-5671 0,-11343 0,-17014z"/>
  <path class="fil0 str0" d="M49206 10404c149,0 270,-121 270,-270 0,-149 -121,-270 -270,-270 -150,0 -271,121 -271,270 0,149 121,270 271,270z"/>
  <path class="fil6 str0" d="M49988 7317zm0 0l1152 0 0 242 -1152 0 0 -242z"/>
  <path class="fil5 str0" d="M32121 20628zm0 0l15359 0 0 242 -15359 0 0 -242z"/>
  <path class="fil5 str0" d="M31947 20628zm0 0l15786 0 0 242 -15786 0 0 -242z"/>
  <path class="fil5 str0" d="M32121 19732zm0 0l15359 0 0 242 -15359 0 0 -242z"/>
  <path class="fil5 str0" d="M31947 19732zm0 0l15786 0 0 242 -15786 0 0 -242z"/>
  <path class="fil5 str0" d="M32121 18835zm0 0l15359 0 0 242 -15359 0 0 -242z"/>
  <path class="fil5 str0" d="M31947 18835zm0 0l15786 0 0 242 -15786 0 0 -242z"/>
  <path class="fil5 str0" d="M32121 17928zm0 0l15359 0 0 242 -15359 0 0 -242z"/>
  <path class="fil5 str0" d="M31947 17928zm0 0l15786 0 0 242 -15786 0 0 -242z"/>
  <path class="fil5 str0" d="M32121 14416zm0 0l15359 0 0 242 -15359 0 0 -242z"/>
  <path class="fil5 str0" d="M31947 14416zm0 0l15786 0 0 242 -15786 0 0 -242z"/>
  <path class="fil5 str0" d="M32121 13519zm0 0l15359 0 0 242 -15359 0 0 -242z"/>
  <path class="fil5 str0" d="M31947 13519zm0 0l15786 0 0 242 -15786 0 0 -242z"/>
  <path class="fil5 str0" d="M32121 12623zm0 0l15359 0 0 242 -15359 0 0 -242z"/>
  <path class="fil5 str0" d="M31947 12623zm0 0l15786 0 0 242 -15786 0 0 -242z"/>
  <path class="fil5 str0" d="M32121 11716zm0 0l15359 0 0 242 -15359 0 0 -242z"/>
  <path class="fil5 str0" d="M31947 11716zm0 0l15786 0 0 242 -15786 0 0 -242z"/>
  <path class="fil0 str0" d="M30869 10099l-364 0c-69,0 -125,44 -125,98l0 714c0,54 56,98 125,98l364 0 0 -910z"/>
  <path class="fil5 str0" d="M30869 9686zm0 0l790 0 0 1747 -790 0 0 -1747z"/>
  <path class="fil0 str0" d="M31847 10305zm0 0l-188 0 0 497 188 0 0 -497z"/>
  <path class="fil5 str0" d="M31847 11445zm0 0l15886 0 0 -768 -15886 0 0 768z"/>
  <line class="fil5 str0" x1="37051" y1="22830" x2="42845" y2= "22830" />
  <line class="fil5 str0" x1="43408" y1="22830" x2="47352" y2= "22830" />
  <line class="fil5 str2" x1="56392" y1="22477" x2="56392" y2= "32334" />
  <line class="fil5 str0" x1="57019" y1="16272" x2="22109" y2= "16272" />
  <line class="fil5 str0" x1="31154" y1="8832" x2="31389" y2= "8640" />
  <line class="fil5 str0" x1="31154" y1="11433" x2="31154" y2= "21138" />
  <line class="fil5 str0" x1="31154" y1="8832" x2="31154" y2= "9686" />
  <line class="fil5 str0" x1="31389" y1="11433" x2="31389" y2= "21138" />
  <path class="fil5 str0" d="M31966 8619c-197,21 -380,19 -577,21l0 1046"/>
  <line class="fil5 str0" x1="31753" y1="21763" x2="31751" y2= "10802" />
  <line class="fil5 str0" x1="31753" y1="10305" x2="31751" y2= "8626" />
  <line class="fil5 str2" x1="27649" y1="28136" x2="27649" y2= "17754" />
  <line class="fil5 str2" x1="22794" y1="32334" x2="22794" y2= "17525" />
  <polygon class="fil7 str0" points="36216,17058 47037,17058 47037,17299 32455,17299 32455,17058 "/>
  <polygon class="fil7 str0" points="36216,16147 47037,16147 47037,16388 32455,16388 32455,16147 "/>
  <polygon class="fil7 str0" points="36216,15245 32455,15245 32455,15486 47037,15486 47037,15245 "/>
  <polygon class="fil7 str0" points="35798,16147 32705,16147 32705,16388 46855,16388 46855,16147 "/>
  <polygon class="fil7 str0" points="35798,15245 32705,15245 32705,15486 46855,15486 46855,15245 "/>
  <polygon class="fil7 str0" points="35798,17058 46855,17058 46855,17299 32705,17299 32705,17058 "/>
  <path class="fil5 str0" d="M37656 4542c-481,0 -871,394 -871,881 0,487 390,881 871,881 481,0 871,-394 871,-881 0,-487 -390,-881 -871,-881z"/>
  <path class="fil5 str0" d="M34324 4542c-481,0 -871,394 -871,881 0,487 390,881 871,881 481,0 871,-394 871,-881 0,-487 -390,-881 -871,-881z"/>
  <line class="fil5 str0" x1="49198" y1="9487" x2="49198" y2= "10675" />
  <line class="fil5 str0" x1="48666" y1="10143" x2="49723" y2= "10143" />
  <line class="fil5 str0" x1="39606" y1="2504" x2="39606" y2= "3754" />
  <line class="fil5 str0" x1="37656" y1="4117" x2="37656" y2= "6729" />
  <line class="fil5 str0" x1="32772" y1="5423" x2="39236" y2= "5423" />
  <line class="fil5 str0" x1="34324" y1="4117" x2="34324" y2= "6729" />
  <polygon class="fil1 str1" points="39873,6933 39492,7317 32473,7317 32079,6937 "/>
  <rect class="fil1 str1" x="43408" y="22830" width="3921" height="1202"/>
  <line class="fil5 str0" x1="30729" y1="10772" x2="30380" y2= "10772" />
  <line class="fil5 str0" x1="30729" y1="10311" x2="30380" y2= "10311" />
  <line class="fil5 str0" x1="30729" y1="10099" x2="30729" y2= "11009" />
  <line class="fil5 str0" x1="32007" y1="10554" x2="30115" y2= "10554" />
  <path class="fil8" d="M27649 27675l-1384 308c85,-89 134,-177 146,-265l-2378 0c12,88 60,176 145,265l-1384 -308 1384 -307c-85,88 -133,176 -145,264l2378 0c-12,-88 -61,-176 -146,-264l1384 307z"/>
  <path class="fil8" d="M33413 27675l-1384 308c85,-89 134,-177 146,-265l-3287 0c12,88 60,176 145,265l-1384 -308 1384 -307c-85,88 -133,176 -145,264l3287 0c-12,-88 -61,-176 -146,-264l1384 307z"/>
  <path class="fil8" d="M47024 27675l-1384 308c85,-89 134,-177 146,-265l-11135 0c12,88 61,176 146,265l-1384 -308 1384 -307c-85,88 -134,176 -146,264l11135 0c-12,-88 -61,-176 -146,-264l1384 307z"/>
  <path class="fil8" d="M48192 29776l-1384 308c85,-89 133,-177 145,-265l-13469 0c12,88 60,176 145,265l-1383 -308 1383 -307c-85,88 -133,176 -145,264l13469 0c-12,-88 -60,-176 -145,-264l1384 307z"/>
  <path class="fil8" d="M58954 25000l-307 -1384c89,85 177,133 264,145l0 -14964c-87,12 -175,60 -264,145l307 -1383 308 1383c-89,-85 -177,-133 -264,-145l0 14964c87,-12 175,-60 264,-145l-308 1384z"/>
  <line class="fil5 str2" x1="59411" y1="25000" x2="50987" y2= "25000" />
  <line class="fil5 str2" x1="59411" y1="7559" x2="51140" y2= "7559" />
  <line class="fil5 str2" x1="48191" y1="30233" x2="48191" y2= "25199" />
  <line class="fil5 str2" x1="32246" y1="27196" x2="32246" y2= "25199" />
  <path class="fil8" d="M56392 31877l-1383 307c84,-88 133,-176 145,-264l-31121 0c12,88 60,176 145,264l-1384 -307 1384 -308c-85,89 -133,177 -145,265l31121 0c-12,-88 -61,-176 -145,-265l1383 308z"/>
  <line class="fil5 str2" x1="32246" y1="30233" x2="32246" y2= "28157" />
  <polygon class="fil0 str0" points="70160,10281 70512,9922 70148,9565 69796,9923 "/>
  <path class="fil5 str0" d="M76865 8798c-135,-7 -270,-11 -407,-11 -136,0 -271,4 -406,11l813 0z"/>
  <path class="fil5 str0" d="M82715 12163c-136,-207 -284,-408 -440,-601l-1 1c-52,52 -137,52 -189,0l-842 -839c-52,-51 -52,-137 0,-189l10 -10c-1187,-991 -2685,-1622 -4327,-1723l0 417c2268,149 4243,1367 5428,3154l361 -210z"/>
  <path class="fil5 str0" d="M83133 12882c-125,-245 -263,-482 -413,-711l413 711z"/>
  <path class="fil5 str0" d="M70555 12385c1193,-1809 3196,-3037 5492,-3169l0 -418c-1650,90 -3158,714 -4353,1702l1 1c52,52 53,137 2,190l-831 849c-52,53 -137,54 -189,2l-11 -10c-169,207 -328,422 -475,647l364 206z"/>
  <path class="fil5 str0" d="M69802 19699c128,249 270,489 424,720l-424 -720z"/>
  <path class="fil5 str0" d="M70144 19453c-482,-956 -755,-2037 -755,-3180 0,-1123 262,-2183 728,-3126l-363 -205 407 -717c-752,1167 -1188,2556 -1188,4048 0,1221 292,2373 811,3392l360 -212z"/>
  <path class="fil5 str0" d="M76018 23328c-2262,-139 -4237,-1343 -5430,-3117l-359 212c128,193 266,380 412,559 51,-33 122,-28 167,17l844 836c50,50 53,130 8,182 1194,999 2705,1633 4360,1729l-2 -418z"/>
  <path class="fil5 str0" d="M82739 20347c762,-1172 1205,-2572 1205,-4074 0,-1204 -284,-2340 -789,-3348l-361 210c469,945 733,2010 733,3138 0,1131 -266,2201 -739,3149l362 208 -411 717z"/>
  <path class="fil5 str0" d="M76899 23745c1638,-95 3133,-717 4322,-1698l-20 -19c-53,-51 -54,-136 -2,-189l828 -852c51,-53 136,-54 189,-3l32 32c165,-200 318,-409 461,-625l-362 -208c-1191,1789 -3175,3005 -5449,3145l1 417z"/>
  <path class="fil5 str0" d="M76034 23748c134,7 268,10 403,10 153,0 303,-4 453,-13"/>
  <path class="fil5 str0" d="M72332 15742c-16,123 -26,249 -31,377"/>
  <path class="fil5 str0" d="M72629 14642c-120,283 -210,583 -265,895"/>
  <path class="fil5 str0" d="M73301 13558c-228,267 -424,563 -580,882"/>
  <path class="fil5 str0" d="M72721 14440c156,-319 352,-615 580,-882"/>
  <path class="fil5 str0" d="M72364 15537c55,-312 145,-612 265,-895"/>
  <path class="fil5 str0" d="M72315 16646c-16,-173 -20,-349 -14,-527 5,-128 15,-254 31,-377"/>
  <path class="fil5 str0" d="M72578 17779c-113,-295 -195,-605 -239,-926"/>
  <path class="fil5 str0" d="M73245 18921c-232,-283 -427,-596 -579,-933"/>
  <path class="fil5 str0" d="M74652 20067c-323,-149 -624,-339 -895,-562"/>
  <path class="fil5 str0" d="M75757 20403c-313,-49 -615,-133 -901,-247"/>
  <path class="fil5 str0" d="M73479 21037l-3 -1846 -1834 4c460,748 1091,1380 1837,1842z"/>
  <path class="fil5 str0" d="M70861 16891l1897 -4c52,317 144,620 270,904l-1992 5c-82,-293 -141,-595 -175,-905z"/>
  <path class="fil5 str0" d="M71098 18001l2029 -4c173,333 395,638 656,903l-2303 5c-152,-287 -280,-590 -382,-904z"/>
  <path class="fil5 str0" d="M70849 15781l1891 -4c-21,165 -33,333 -32,503 0,136 8,270 22,402l-1887 4c-10,-133 -15,-267 -15,-402 -1,-169 7,-337 21,-503z"/>
  <path class="fil5 str0" d="M71062 14659l2011 -4c-136,284 -236,588 -298,906l-1903 4c39,-311 103,-613 190,-906z"/>
  <path class="fil5 str0" d="M71536 13538l2361 -5c-281,262 -521,568 -711,906l-2054 4c108,-315 244,-618 404,-905z"/>
  <path class="fil5 str0" d="M81198 19280l-1846 17 17 1833c744,-466 1371,-1101 1829,-1850z"/>
  <path class="fil5 str0" d="M77117 21865l-18 -1897c316,-54 619,-148 903,-276l18 1992c-292,84 -594,145 -903,181z"/>
  <path class="fil5 str0" d="M78225 21620l-19 -2028c333,-176 635,-400 899,-662l21 2302c-286,154 -587,285 -901,388z"/>
  <path class="fil5 str0" d="M76006 21885l-17 -1891c165,21 333,31 504,29 136,-1 269,-10 401,-25l17 1887c-132,11 -266,17 -401,18 -170,2 -337,-5 -504,-18z"/>
  <path class="fil5 str0" d="M74884 21680l-19 -2011c285,134 589,233 908,291l17 1904c-310,-37 -613,-99 -906,-184z"/>
  <path class="fil5 str0" d="M73758 21214l-21 -2361c265,279 572,518 911,705l19 2054c-316,-106 -620,-239 -909,-398z"/>
  <path class="fil5 str0" d="M79473 11572l-13 1846 1833 13c-453,-752 -1078,-1390 -1820,-1859z"/>
  <path class="fil5 str0" d="M82061 15706l-1897 -14c-49,-317 -138,-621 -262,-907l1992 15c80,293 136,596 167,906z"/>
  <path class="fil5 str0" d="M81835 14593l-2029 -14c-170,-335 -389,-641 -648,-909l2303 16c149,289 275,592 374,907z"/>
  <path class="fil5 str0" d="M82063 16816l-1891 -13c23,-165 36,-333 37,-504 1,-135 -5,-269 -18,-401l1887 13c8,133 12,267 11,402 -1,169 -10,337 -26,503z"/>
  <path class="fil5 str0" d="M81839 17935l-2011 -14c139,-283 243,-585 307,-903l1903 14c-41,310 -109,612 -199,903z"/>
  <path class="fil5 str0" d="M81355 19053l-2361 -17c284,-260 527,-564 720,-900l2054 15c-111,314 -250,616 -413,902z"/>
  <path class="fil5 str0" d="M79204 11356l0 2361c-262,-281 -567,-522 -905,-713l0 -2054c315,109 618,245 905,406z"/>
  <path class="fil5 str0" d="M78083 10880l0 2011c-283,-137 -587,-238 -905,-300l0 -1904c310,40 613,105 905,193z"/>
  <path class="fil5 str0" d="M76962 10664l0 1891c-165,-22 -333,-33 -504,-33 -135,0 -269,7 -401,21l0 -1887c133,-9 266,-14 401,-14 170,0 338,8 504,22z"/>
  <path class="fil5 str0" d="M74741 10909l0 2028c-334,173 -638,394 -905,654l0 -2302c288,-152 591,-280 905,-380z"/>
  <path class="fil5 str0" d="M75852 10674l0 1897c-317,51 -620,143 -905,268l0 -1992c293,-81 595,-140 905,-173z"/>
  <path class="fil5 str0" d="M71674 13302l1846 0 0 -1833c-748,459 -1382,1088 -1846,1833z"/>
  <path class="fil5 str0" d="M76458 21539c156,0 311,-7 464,-20"/>
  <path class="fil5 str0" d="M77127 21497c310,-39 611,-105 902,-196"/>
  <path class="fil5 str0" d="M78233 21233c314,-113 614,-254 898,-422"/>
  <path class="fil5 str0" d="M79371 20693c549,-378 1023,-858 1394,-1411"/>
  <path class="fil5 str0" d="M80941 19038c178,-288 329,-594 450,-916"/>
  <path class="fil5 str0" d="M81463 17916c97,-294 168,-601 212,-916"/>
  <path class="fil5 str0" d="M81700 16795c17,-172 25,-346 25,-522 0,-129 -4,-257 -14,-383"/>
  <path class="fil5 str0" d="M81692 15684c-34,-310 -95,-612 -182,-904"/>
  <path class="fil5 str0" d="M81445 14575c-107,-316 -244,-618 -406,-904"/>
  <path class="fil5 str0" d="M80855 13419c-369,-553 -839,-1032 -1383,-1411"/>
  <path class="fil5 str0" d="M79204 11778c-288,-177 -594,-326 -915,-445"/>
  <path class="fil5 str0" d="M78083 11262c-294,-96 -600,-166 -915,-209"/>
  <path class="fil5 str0" d="M76962 11030c-166,-16 -333,-24 -504,-24 -135,0 -268,5 -401,15"/>
  <path class="fil5 str0" d="M75852 11041c-311,35 -613,98 -905,185"/>
  <path class="fil5 str0" d="M74741 11292c-316,109 -619,248 -905,412"/>
  <path class="fil5 str0" d="M71958 13536c-176,289 -325,595 -443,917"/>
  <path class="fil5 str0" d="M73520 11901c-554,374 -1034,850 -1411,1401"/>
  <path class="fil5 str0" d="M71444 14658c-95,294 -164,599 -206,913"/>
  <path class="fil5 str0" d="M71215 15777c-16,163 -23,328 -23,496 0,137 5,273 15,408"/>
  <path class="fil5 str0" d="M71227 16887c37,312 100,615 188,907"/>
  <path class="fil5 str0" d="M71482 18000c110,318 250,622 416,909"/>
  <path class="fil5 str0" d="M72079 19201c373,550 848,1026 1398,1400"/>
  <path class="fil5 str0" d="M73756 20793c292,176 603,323 929,440"/>
  <path class="fil5 str0" d="M74892 21303c296,92 603,158 919,197"/>
  <path class="fil5 str0" d="M76017 21521c145,12 293,18 441,18"/>
  <path class="fil5 str0" d="M76458 20451c77,0 153,-3 229,-7"/>
  <path class="fil5 str0" d="M76687 20444c72,-4 144,-9 216,-17"/>
  <path class="fil5 str0" d="M77108 20400c313,-49 615,-132 901,-247"/>
  <path class="fil5 str0" d="M78213 20065c323,-150 624,-339 896,-563"/>
  <path class="fil5 str0" d="M79590 19038c242,-274 449,-580 613,-911"/>
  <path class="fil5 str0" d="M80298 17921c125,-290 218,-597 274,-916"/>
  <path class="fil5 str0" d="M80603 16799c22,-172 33,-348 33,-526 0,-128 -5,-254 -17,-379"/>
  <path class="fil5 str0" d="M80596 15689c-44,-314 -123,-617 -233,-904"/>
  <path class="fil5 str0" d="M80279 14579c-145,-324 -329,-627 -547,-902"/>
  <path class="fil5 str0" d="M79204 13124c-276,-241 -583,-446 -915,-608 332,162 639,367 915,608z"/>
  <path class="fil5 str0" d="M79732 13677c218,275 402,578 547,902"/>
  <path class="fil5 str0" d="M80363 14785c110,287 189,590 233,904"/>
  <path class="fil5 str0" d="M80619 15894c12,125 17,251 17,379"/>
  <path class="fil5 str0" d="M78083 12422c-290,-122 -596,-213 -915,-267 319,54 625,145 915,267z"/>
  <path class="fil5 str0" d="M76962 12125c-165,-20 -333,-30 -504,-30 -135,0 -268,6 -401,19"/>
  <path class="fil5 str0" d="M75852 12139c-315,45 -618,126 -905,238"/>
  <path class="fil5 str0" d="M74741 12463c-308,139 -596,315 -859,521 263,-206 551,-382 859,-521z"/>
  <path class="fil5 str0" d="M73882 12984c-15,12 -30,24 -46,36 16,-12 31,-24 46,-36z"/>
  <path class="fil5 str0" d="M75998 20425c43,5 86,9 129,13 109,8 220,13 331,13 -111,0 -222,-5 -331,-13 -43,-4 -86,-8 -129,-13z"/>
  <polygon class="fil0 str0" points="70160,10281 70512,9922 70341,9754 69989,10113 "/>
  <g>
   <path class="fil0" d="M70330 10134l-462 -482 462 482zm12155 -126l356 353 360 -362 -357 -353 -359 362z"/>
   <path id="1" class="fil5 str0" d="M70330 10134l-462 -482m12617 356l356 353 360 -362 -357 -353 -359 362z"/>
  </g>
  <polygon class="fil0 str0" points="82485,10008 82841,10361 83011,10191 82654,9837 "/>
  <path class="fil5 str0" d="M82631 10178l484 -459m-6626 -1169l0 -170m-305 -29l611 3m-5929 3186l831 -849c51,-53 50,-138 -3,-189l-798 -782c-53,-51 -138,-50 -189,2l-831 850c-52,52 -51,138 2,189l798 781c53,52 138,51 190,-2zm10377 -816l842 840c52,51 137,51 189,-1l789 -791c52,-52 51,-137 -1,-190l-841 -838c-52,-52 -137,-52 -189,0l-789 791c-52,52 -52,138 0,189zm784 10263l-828 852c-52,53 -51,138 2,189l802 779c52,52 137,50 189,-2l828 -853c51,-52 50,-137 -3,-189l-801 -779c-53,-51 -138,-50 -189,3zm-10375 848l-844 -836c-52,-52 -138,-51 -189,1l-787 794c-51,52 -51,137 1,189l844 836c53,52 138,52 190,-1l786 -793c52,-53 51,-138 -1,-190zm1238 -13644c-246,108 -487,228 -721,359m-211 121c-1240,736 -2285,1767 -3037,2995m-133 224c-131,228 -252,463 -362,704m-84 190c-109,252 -206,511 -292,775m-24 76c-260,833 -401,1719 -401,2638 0,303 16,603 46,899m2 23c62,601 185,1185 362,1744m32 97c84,256 180,506 286,751m90 202c112,240 234,475 367,703m134 224c550,888 1252,1671 2071,2313m644 460c1382,896 3030,1417 4799,1417 1789,0 3453,-533 4844,-1447m642 -463c811,-644 1506,-1427 2049,-2312m133 -224c131,-228 252,-463 362,-704m86 -191c108,-252 205,-509 290,-772m25 -79c176,-562 298,-1148 358,-1752m3 -22c27,-286 42,-575 42,-867 0,-283 -14,-563 -40,-840m-2 -22c-59,-606 -179,-1194 -354,-1758m-20 -63c-85,-269 -184,-533 -294,-791m-80 -182c-111,-244 -233,-482 -365,-713m-126 -214c-733,-1205 -1745,-2221 -2948,-2957m-211 -125c-247,-142 -502,-273 -764,-391m-7212 -855l7213 0 55 2165c-1081,-580 -2385,-940 -3686,-940 -1300,0 -2558,347 -3624,907l42 -2132zm3582 16596c1866,0 3576,-665 4907,-1771l-164 -159c-53,-51 -54,-136 -2,-189l828 -852c51,-53 136,-54 189,-3l176 172c1095,-1328 1752,-3029 1752,-4883 0,-1841 -648,-3530 -1727,-4853l-143 143c-52,52 -137,52 -189,1l-842 -840c-52,-51 -52,-137 0,-189l152 -152c-1335,-1121 -3057,-1796 -4937,-1796 -1866,0 -3577,666 -4908,1773l144 142c53,51 54,136 3,189l-831 849c-52,53 -137,54 -190,2l-153 -150c-1093,1327 -1750,3027 -1750,4881 0,1838 647,3527 1724,4850l122 -123c51,-52 137,-53 189,-1l844 836c52,52 53,137 1,190l-134 135c1336,1122 3059,1798 4939,1798z"/>
  <path class="fil0 str0" d="M76155 8550zm0 0l643 0 0 248 -643 0 0 -248z"/>
  <path class="fil1 str0" d="M72192 9880l-238 167 4 -1492 102 -114 109 76 23 1363zm-2065 10781l186 259 -1485 -4 -108 -109 72 -114 1335 -32zm-529 -910l127 241 -1335 -4 -100 -100 67 -107 1241 -30zm-380 -893l80 215 -1197 -3 -91 -91 61 -96 1147 -25zm-263 -897l49 211 -1085 -3 -83 -83 55 -88 1064 -37zm-140 -886l16 195 -1086 -2 -82 -84 55 -87 1097 -22zm-41 -705l-4 -195 -1085 3 -83 83 56 88 1116 21zm37 -863l16 -195 -1085 3 -83 83 55 88 1097 21zm140 -886l49 -210 -1085 3 -83 82 56 89 1063 36zm263 -897l80 -215 -1197 3 -90 91 60 97 1147 24zm381 -893l126 -241 -1335 4 -100 101 67 106 1242 30zm528 -909l186 -259 -1485 4 -108 108 72 115 1335 32zm2772 11161l-198 -108 3 1233 85 94 89 -63 21 -1156zm783 356l-188 -76 3 1167 80 89 85 -59 20 -1121zm845 283l-182 -60 3 1113 77 86 82 -57 20 -1082zm815 155l-183 -29 2 1082 76 83 79 -56 26 -1080zm790 74l-179 -11 3 1058 73 82 78 -54 25 -1075zm659 0l179 -10 -2 1058 -74 81 -78 -54 -25 -1075zm791 -74l183 -29 -3 1082 -75 83 -80 -55 -25 -1081zm815 -155l181 -59 -3 1113 -77 85 -82 -57 -19 -1082zm844 -283l188 -76 -3 1167 -80 89 -85 -59 -20 -1121zm783 -356l199 -108 -4 1233 -84 94 -90 -63 -21 -1156zm2773 -2455l-186 260 1486 -4 107 -109 -72 -115 -1335 -32zm529 -909l-127 241 1335 -4 100 -101 -67 -107 -1241 -29zm380 -893l-80 215 1197 -3 91 -91 -61 -97 -1147 -24zm263 -897l-49 210 1085 -3 83 -82 -55 -88 -1064 -37zm141 -886l-16 195 1085 -3 82 -83 -55 -88 -1096 -21zm34 -668l3 -195 1085 3 83 82 -55 89 -1116 21zm-32 -845l-16 -195 1085 3 83 83 -55 88 -1097 21zm-140 -885l-49 -211 1085 3 83 83 -55 88 -1064 37zm-263 -898l-80 -215 1197 3 91 91 -61 97 -1147 24zm-381 -893l-126 -240 1335 3 100 101 -67 107 -1242 29zm-528 -909l-186 -259 1485 4 108 108 -72 115 -1335 32zm-1967 -1994l238 167 -4 -1492 -102 -113 -109 75 -23 1363z"/>
  <line class="fil5 str0" x1="84978" y1="17248" x2="84983" y2= "17037" />
  <line class="fil5 str0" x1="84805" y1="18149" x2="84810" y2= "17938" />
  <line class="fil5 str0" x1="84604" y1="19052" x2="84610" y2= "18820" />
  <line class="fil5 str0" x1="84306" y1="19959" x2="84311" y2= "19727" />
  <line class="fil5 str0" x1="83805" y1="20884" x2="83810" y2= "20653" />
  <line class="fil5 str0" x1="67942" y1="17280" x2="67937" y2= "17069" />
  <line class="fil5 str0" x1="68115" y1="18181" x2="68110" y2= "17970" />
  <line class="fil5 str0" x1="68316" y1="19084" x2="68311" y2= "18853" />
  <line class="fil5 str0" x1="68615" y1="19991" x2="68609" y2= "19759" />
  <line class="fil5 str0" x1="69116" y1="20917" x2="69110" y2= "20685" />
  <line class="fil5 str0" x1="85032" y1="16170" x2="85037" y2= "16381" />
  <line class="fil5 str0" x1="84981" y1="15326" x2="84986" y2= "15536" />
  <line class="fil5 str0" x1="84808" y1="14424" x2="84812" y2= "14635" />
  <line class="fil5 str0" x1="84606" y1="13522" x2="84612" y2= "13753" />
  <line class="fil5 str0" x1="84308" y1="12615" x2="84314" y2= "12846" />
  <line class="fil5 str0" x1="83807" y1="11689" x2="83813" y2= "11920" />
  <line class="fil5 str0" x1="67882" y1="16165" x2="67877" y2= "16377" />
  <line class="fil5 str0" x1="67938" y1="15302" x2="67933" y2= "15513" />
  <line class="fil5 str0" x1="68111" y1="14401" x2="68107" y2= "14612" />
  <line class="fil5 str0" x1="68313" y1="13498" x2="68307" y2= "13730" />
  <line class="fil5 str0" x1="68611" y1="12591" x2="68605" y2= "12823" />
  <line class="fil5 str0" x1="69112" y1="11666" x2="69106" y2= "11897" />
  <line class="fil5 str0" x1="70419" y1="24074" x2="71023" y2= "23216" />
  <line class="fil5 str0" x1="81941" y1="23192" x2="82548" y2= "24031" />
  <line class="fil5 str0" x1="81270" y1="5410" x2="82050" y2= "5410" />
  <circle class="fil9 str1" cx="76517" cy="16274" r="1353"/>
  <circle class="fil0 str1" cx="76517" cy="16274" r="1183"/>
  <path class="fil7 str0" d="M76517 16627c195,0 353,-158 353,-353 0,-194 -158,-352 -353,-352 -194,0 -352,158 -352,352 0,195 158,353 352,353z"/>
  <path class="fil10 str0" d="M76143 14787zm0 0l748 0 0 491 -748 0 0 -491z"/>
  <line class="fil5 str0" x1="65858" y1="16274" x2="88067" y2= "16274" />
  <line class="fil5 str0" x1="81079" y1="8896" x2="80818" y2= "8889" />
  <line class="fil5 str0" x1="71942" y1="8825" x2="72203" y2= "8818" />
  <circle class="fil0 str1" cx="76517" cy="12996" r="273"/>
  <line class="fil5 str1" x1="76036" y1="12996" x2="76998" y2= "12996" />
  <line class="fil5 str1" x1="76517" y1="20030" x2="76517" y2= "19068" />
  <circle class="fil0 str1" transform="matrix(-0.472676 0.818699 0.818699 0.472676 79302.5 17908.1)" r="288"/>
  <line class="fil5 str1" x1="79543" y1="17492" x2="79062" y2= "18325" />
  <line class="fil5 str1" x1="79719" y1="18149" x2="78886" y2= "17668" />
  <circle class="fil0 str1" transform="matrix(0.472676 0.818699 -0.818699 0.472676 73617.7 17908.1)" r="288"/>
  <line class="fil5 str1" x1="73377" y1="17492" x2="73858" y2= "18325" />
  <line class="fil5 str1" x1="73201" y1="18149" x2="74034" y2= "17668" />
  <path class="fil8" d="M24477 27303l217 -977c5,-20 4,-36 -2,-46 -7,-11 -16,-16 -29,-16 -17,0 -35,8 -54,24l-269 216c-15,11 -24,24 -27,38 -3,15 0,28 9,39 9,11 21,16 36,16 13,0 26,-5 41,-17l156 -124 -188 847c-4,17 -1,30 8,39 9,10 21,15 35,15 16,0 31,-5 43,-14 12,-9 20,-22 24,-40z"/>
  <path id="1" class="fil8" d="M25261 27031l36 -164c4,-17 1,-30 -8,-39 -9,-10 -21,-15 -35,-15 -16,0 -31,5 -43,16 -13,10 -21,23 -24,38l-37 164 -260 0 356 -691c2,-5 4,-11 5,-16 3,-16 0,-29 -9,-39 -9,-10 -21,-15 -36,-15 -11,0 -22,4 -33,11 -12,6 -21,16 -28,29l-390 761c-2,2 -4,6 -6,11 -2,5 -4,9 -4,13 -7,29 9,44 48,44l333 0 -36 164c-4,17 -1,30 8,39 8,10 20,15 35,15 17,0 31,-5 43,-14 12,-9 21,-22 25,-40l36 -164 111 0c18,0 33,-5 45,-16 11,-10 19,-23 22,-38 3,-16 2,-29 -5,-39 -7,-10 -20,-15 -38,-15l-111 0z"/>
  <path id="2" class="fil8" d="M26186 27118l135 -608c15,-67 4,-123 -33,-170 -38,-47 -90,-70 -157,-70l-67 0c-67,0 -130,24 -190,72 -58,46 -94,102 -109,168l-135 608c-15,67 -4,124 34,170 37,46 90,69 159,69l66 0c68,0 131,-23 188,-69 58,-46 94,-103 109,-170zm-111 0c-8,36 -27,67 -59,93 -32,25 -66,38 -103,38l-66 0c-37,0 -66,-13 -86,-38 -21,-26 -27,-57 -19,-93l135 -608c8,-36 28,-67 60,-92 32,-26 66,-38 103,-38l66 0c37,0 66,12 86,38 21,25 27,56 19,92l-136 608z"/>
  <path class="fil8" d="M29809 27303l217 -977c5,-20 4,-36 -2,-46 -7,-11 -16,-16 -29,-16 -17,0 -35,8 -55,24l-269 216c-14,11 -23,24 -26,38 -3,15 0,28 8,39 9,11 21,16 37,16 13,0 26,-5 41,-17l156 -124 -188 847c-4,17 -1,30 8,39 9,10 21,15 35,15 16,0 30,-5 43,-14 12,-9 20,-22 24,-40z"/>
  <path id="1" class="fil8" d="M30254 26813l220 0c31,0 55,11 72,32 17,21 22,47 16,78l-48 216c-7,31 -24,57 -50,78 -27,21 -56,32 -87,32l-111 0c-31,0 -55,-11 -70,-32 -16,-21 -21,-47 -14,-78l72 -326zm44 -108c16,-32 32,-62 49,-87 76,-115 177,-196 302,-243 25,-11 40,-27 45,-49 4,-15 1,-28 -6,-39 -8,-11 -20,-17 -35,-17 -8,0 -15,2 -24,5 -75,29 -146,69 -211,121 -66,53 -120,112 -164,179 -61,91 -102,189 -125,292l-61 272c-13,61 -3,113 31,156 34,41 82,62 143,62l111 0c63,0 120,-21 171,-62 53,-43 86,-95 100,-156l48 -216c14,-61 4,-113 -30,-156 -33,-41 -81,-62 -144,-62l-200 0z"/>
  <path id="2" class="fil8" d="M31275 26705c-51,0 -89,-17 -112,-50 -21,-30 -26,-68 -16,-113 10,-45 32,-82 65,-111 39,-34 84,-51 135,-51 52,0 90,17 114,51 21,29 26,66 16,111 -10,45 -32,83 -66,113 -39,33 -84,50 -136,50zm-24 108c70,0 121,23 154,69 26,40 33,90 20,149 -13,60 -43,110 -88,149 -51,46 -111,69 -183,69 -70,0 -121,-23 -151,-69 -28,-40 -35,-90 -22,-149 14,-60 43,-110 89,-149 50,-46 110,-69 181,-69zm198 -60c36,-25 66,-57 90,-94 24,-37 41,-76 50,-117 17,-74 7,-136 -28,-186 -39,-57 -102,-86 -189,-86 -88,0 -163,29 -226,86 -58,50 -95,112 -111,186 -9,41 -10,80 -2,117 8,36 25,67 49,92 -56,30 -102,70 -139,119 -36,49 -61,103 -74,161 -20,89 -9,164 33,226 47,66 123,100 228,100 106,0 198,-34 275,-102 68,-61 113,-136 132,-224 13,-57 12,-111 -2,-160 -15,-50 -43,-89 -86,-118z"/>
  <path class="fil8" d="M39773 26381c52,0 89,17 112,50 20,28 25,65 15,109 -10,44 -32,82 -68,115 -39,35 -83,52 -132,52l-112 0c-17,0 -32,5 -44,16 -12,10 -20,23 -23,38 -3,15 -1,28 7,38 8,11 20,16 36,16l112 0c23,0 43,4 62,13 18,8 33,20 45,35 12,14 20,32 24,51 4,20 4,41 -1,63l-24 110c-5,22 -14,43 -27,62 -13,20 -29,37 -48,52 -18,15 -38,26 -60,35 -22,8 -44,13 -67,13l-223 0c-17,0 -32,5 -44,16 -12,11 -20,24 -23,39 -4,15 -2,28 6,38 7,11 19,16 37,16l223 0c76,0 148,-26 214,-79 66,-53 107,-117 124,-192l24 -110c10,-44 9,-85 -2,-121 -11,-37 -31,-68 -59,-93 41,-26 76,-58 103,-97 27,-38 45,-80 55,-124 16,-74 7,-136 -29,-186 -39,-56 -102,-84 -189,-84l-223 0c-17,0 -32,5 -44,16 -12,12 -20,24 -23,38 -3,16 -2,29 6,39 7,11 20,16 37,16l223 0z"/>
  <path id="1" class="fil8" d="M40405 27303l217 -977c5,-20 4,-36 -3,-46 -6,-11 -16,-16 -29,-16 -16,0 -34,8 -54,24l-269 216c-14,11 -23,24 -26,38 -3,15 -1,28 8,39 9,11 21,16 36,16 13,0 27,-5 42,-17l156 -124 -189 847c-3,17 -1,30 9,39 9,10 21,15 35,15 16,0 30,-5 43,-14 12,-9 20,-22 24,-40z"/>
  <path id="2" class="fil8" d="M40961 27303l217 -977c5,-20 4,-36 -3,-46 -6,-11 -16,-16 -29,-16 -16,0 -34,8 -54,24l-269 216c-14,11 -23,24 -26,38 -3,15 -1,28 8,39 9,11 21,16 36,16 13,0 27,-5 42,-17l156 -124 -189 847c-3,17 -1,30 9,39 9,10 21,15 35,15 16,0 30,-5 42,-14 13,-9 21,-22 25,-40z"/>
  <path class="fil8" d="M39523 29132l36 -164c4,-17 1,-30 -8,-39 -10,-10 -21,-15 -35,-15 -17,0 -31,5 -44,15 -12,10 -20,23 -24,39l-36 164 -260 0 355 -691c2,-5 4,-11 5,-16 4,-16 1,-29 -8,-39 -9,-10 -21,-15 -37,-15 -10,0 -21,4 -33,10 -11,7 -20,17 -27,30l-391 761c-1,2 -3,5 -5,11 -3,5 -4,9 -5,12 -6,30 10,45 49,45l333 0 -36 164c-4,17 -2,30 7,39 9,10 21,15 36,15 16,0 30,-5 43,-14 12,-9 20,-22 24,-40l37 -164 110 0c19,0 33,-5 45,-16 12,-11 19,-23 22,-38 4,-16 2,-29 -5,-39 -7,-10 -19,-15 -38,-15l-110 0z"/>
  <path id="1" class="fil8" d="M40412 29132l36 -164c4,-17 1,-30 -8,-39 -9,-10 -21,-15 -35,-15 -16,0 -31,5 -43,15 -13,10 -21,23 -24,39l-37 164 -260 0 355 -691c3,-5 4,-11 5,-16 4,-16 1,-29 -8,-39 -9,-10 -21,-15 -36,-15 -11,0 -22,4 -34,10 -11,7 -20,17 -27,30l-391 761c-1,2 -3,5 -5,11 -2,5 -4,9 -5,12 -6,30 10,45 49,45l333 0 -36 164c-4,17 -1,30 7,39 9,10 21,15 36,15 16,0 31,-5 43,-14 12,-9 20,-22 24,-40l37 -164 110 0c19,0 34,-5 45,-16 12,-11 19,-23 23,-38 3,-16 1,-29 -6,-39 -7,-10 -19,-15 -38,-15l-110 0z"/>
  <path id="2" class="fil8" d="M40962 28914l220 0c31,0 55,11 72,32 17,21 22,47 16,78l-48 216c-7,31 -24,57 -50,78 -27,21 -56,32 -87,32l-110 0c-32,0 -56,-11 -71,-32 -16,-21 -21,-47 -14,-78l72 -326zm44 -108c16,-33 32,-62 49,-87 76,-115 177,-197 302,-243 25,-11 40,-27 45,-49 4,-15 1,-28 -6,-39 -8,-11 -20,-17 -35,-17 -7,0 -15,2 -24,5 -75,28 -146,69 -211,121 -66,53 -120,112 -164,179 -61,91 -102,189 -125,292l-61 272c-13,61 -3,113 31,156 34,41 82,62 144,62l110 0c63,0 120,-21 171,-62 53,-43 86,-95 100,-156l48 -216c14,-61 4,-113 -30,-156 -33,-41 -81,-62 -144,-62l-200 0z"/>
  <path class="fil8" d="M39428 30907c-51,0 -89,-17 -113,-51 -20,-29 -25,-67 -15,-112 10,-45 31,-82 65,-112 39,-33 84,-50 135,-50 52,0 90,17 114,50 20,30 26,67 16,112 -10,45 -32,83 -66,112 -39,34 -84,51 -136,51zm-24 108c70,0 121,23 153,69 27,40 34,90 21,149 -14,60 -43,110 -89,149 -50,46 -111,68 -182,68 -71,0 -121,-22 -151,-68 -28,-40 -35,-90 -22,-149 13,-61 43,-110 89,-149 50,-46 110,-69 181,-69zm198 -60c36,-26 66,-57 90,-94 24,-37 41,-76 50,-117 16,-75 7,-136 -29,-186 -38,-57 -101,-86 -189,-86 -87,0 -163,29 -225,86 -58,50 -95,111 -111,186 -10,41 -10,80 -2,116 8,37 25,68 49,93 -56,30 -103,69 -139,119 -36,49 -61,103 -74,161 -20,89 -9,164 33,225 47,67 123,100 228,100 106,0 197,-33 274,-101 69,-62 113,-136 133,-224 13,-57 12,-111 -3,-161 -14,-49 -42,-89 -85,-117z"/>
  <path id="1" class="fil8" d="M40412 31233l36 -164c4,-17 1,-30 -8,-39 -9,-10 -21,-15 -35,-15 -16,0 -31,5 -43,15 -13,10 -21,23 -24,39l-37 164 -260 0 355 -691c3,-5 4,-11 5,-16 4,-16 1,-29 -8,-39 -9,-10 -21,-15 -36,-15 -11,0 -22,3 -34,10 -11,7 -20,17 -27,30l-391 761c-1,2 -3,5 -5,11 -2,5 -4,9 -5,12 -6,30 10,45 49,45l333 0 -36 163c-4,17 -1,31 7,40 9,10 21,14 36,14 16,0 31,-4 43,-13 12,-9 20,-23 24,-41l37 -163 110 0c19,0 34,-5 45,-16 12,-11 19,-23 23,-38 3,-16 1,-29 -6,-39 -7,-10 -19,-15 -38,-15l-110 0z"/>
  <path id="2" class="fil8" d="M41057 30582l389 0c17,0 32,-6 44,-17 12,-11 20,-24 23,-37 3,-16 2,-30 -5,-40 -7,-11 -20,-16 -38,-16l-444 0c-38,0 -61,18 -69,56l-96 433c-8,36 7,54 44,54l222 0c22,0 43,4 62,13 18,8 34,20 46,35 11,15 20,32 24,52 4,20 4,42 -1,64l-24 108c-5,22 -14,43 -27,63 -13,19 -29,37 -48,52 -18,15 -39,27 -61,36 -23,8 -45,12 -68,12l-221 0c-19,0 -34,6 -46,16 -12,11 -20,24 -23,38 -3,15 -1,28 7,39 8,10 20,15 38,15l221 0c77,0 148,-26 214,-79 66,-53 107,-117 124,-192l24 -108c17,-75 4,-139 -38,-192 -43,-53 -102,-80 -179,-80l-166 0 72 -325z"/>
  <line class="fil5 str1" x1="84028" y1="24623" x2="84028" y2= "24912" />
  <line class="fil5 str1" x1="84028" y1="24320" x2="84028" y2= "24031" />
  <line class="fil5 str1" x1="83165" y1="24623" x2="83165" y2= "24912" />
  <line class="fil5 str1" x1="83165" y1="24320" x2="83165" y2= "24031" />
  <line class="fil5 str1" x1="69889" y1="24597" x2="69889" y2= "24912" />
  <line class="fil5 str1" x1="69889" y1="24320" x2="69889" y2= "24031" />
  <line class="fil5 str1" x1="69026" y1="24597" x2="69026" y2= "24912" />
  <line class="fil5 str1" x1="69026" y1="24320" x2="69026" y2= "24031" />
  <line class="fil5 str2" x1="84041" y1="27735" x2="83165" y2= "27735" />
  <line class="fil5 str2" x1="90171" y1="25199" x2="84764" y2= "25199" />
  <path class="fil8" d="M87610 25199l-307 -1384c88,85 176,134 264,146l0 -6437c-88,12 -176,60 -264,145l307 -1383 308 1383c-89,-85 -177,-133 -265,-145l0 6437c88,-12 176,-61 265,-146l-308 1384z"/>
  <path class="fil8" d="M89711 25199l-307 -1384c88,85 176,134 264,146l0 -19815c-88,12 -176,61 -264,146l307 -1384 308 1384c-89,-85 -177,-134 -265,-146l0 19815c88,-12 176,-61 265,-146l-308 1384z"/>
  <line class="fil5 str2" x1="83165" y1="24863" x2="83165" y2= "28196" />
  <line class="fil5 str2" x1="84028" y1="24863" x2="84028" y2= "28187" />
  <path class="fil8" d="M81927 27691l-669 0 0 87 669 0c-12,87 -61,175 -146,264l1384 -307 -1384 -308c85,89 134,177 146,264z"/>
  <path class="fil8" d="M69458 29793l1384 -307c-85,89 -134,176 -146,264l11662 0c-12,-88 -60,-175 -145,-264l1384 307 -1384 308c85,-89 133,-177 145,-264l-11662 0c12,87 61,175 146,264l-1384 -308z"/>
  <path class="fil8" d="M67862 31894l1384 -307c-85,88 -133,176 -145,264l14853 0c-12,-88 -61,-176 -146,-264l1384 307 -1384 308c85,-89 134,-177 146,-265l-14853 0c12,88 60,176 145,265l-1384 -308z"/>
  <line class="fil5 str2" x1="85192" y1="28190" x2="85192" y2= "32355" />
  <line class="fil5 str2" x1="85192" y1="24942" x2="85192" y2= "27272" />
  <line class="fil5 str2" x1="67862" y1="24919" x2="67862" y2= "32355" />
  <path class="fil8" d="M86625 21301c-43,-33 -87,-55 -134,-65 -77,-17 -144,-2 -200,46 -57,48 -86,115 -86,201 0,45 13,91 38,138 24,47 57,88 97,123 10,8 20,14 30,16 15,3 28,0 38,-10 10,-9 15,-21 15,-35 0,-21 -9,-38 -26,-51 -25,-23 -45,-49 -60,-77 -15,-28 -22,-58 -22,-88 0,-53 17,-95 51,-125 32,-30 73,-39 122,-28 27,6 54,19 81,39l638 551c15,12 29,20 42,23 28,6 43,-11 43,-51l0 -444c0,-17 -6,-32 -17,-44 -11,-12 -24,-20 -37,-23 -16,-4 -29,-2 -39,5 -10,7 -15,20 -15,38l0 345 -559 -484z"/>
  <path id="1" class="fil8" d="M86315 20859l0 -389c0,-17 -6,-32 -17,-44 -11,-13 -23,-20 -37,-23 -16,-4 -29,-2 -40,5 -11,7 -16,19 -16,38l0 443c0,38 19,61 56,70l433 96c36,8 54,-7 54,-45l0 -221c0,-23 5,-43 13,-62 9,-19 20,-34 35,-46 15,-12 32,-20 53,-24 20,-4 41,-4 63,1l108 24c22,5 43,14 63,27 19,13 37,29 52,47 16,19 27,40 36,62 8,22 13,45 13,68l0 221c0,18 5,34 16,46 10,12 23,20 38,23 15,3 27,1 38,-7 10,-8 16,-21 16,-38l0 -221c0,-77 -27,-149 -80,-214 -53,-66 -117,-108 -192,-124l-108 -24c-75,-17 -139,-4 -192,38 -53,42 -80,102 -80,179l0 166 -325 -72z"/>
  <path id="2" class="fil8" d="M87053 19802l-608 -135c-67,-15 -123,-4 -170,33 -47,38 -70,90 -70,157l0 67c0,67 24,130 72,190 46,58 102,94 168,109l608 135c67,15 124,3 170,-34 46,-37 69,-90 69,-159l0 -66c0,-69 -23,-131 -69,-188 -46,-58 -103,-94 -170,-109zm0 110c36,9 67,28 93,60 25,32 38,66 38,103l0 66c0,37 -13,66 -38,86 -26,21 -57,27 -93,19l-608 -136c-36,-8 -67,-27 -92,-59 -25,-32 -38,-66 -38,-103l0 -66c0,-37 13,-66 38,-86 25,-21 56,-27 92,-19l608 135z"/>
  <path class="fil8" d="M88849 14918l0 -220c0,-31 11,-55 32,-72 21,-17 47,-22 78,-16l216 48c31,7 57,24 78,50 21,27 32,56 32,87l0 110c0,32 -11,56 -32,71 -21,16 -47,21 -78,14l-326 -72zm-108 -44c-33,-16 -62,-32 -87,-49 -115,-76 -196,-177 -243,-302 -11,-25 -27,-40 -49,-45 -15,-4 -28,-1 -39,6 -11,8 -17,20 -17,35 0,7 2,15 5,24 28,75 69,146 121,211 53,66 112,120 179,164 91,61 189,102 292,125l272 61c61,13 113,3 156,-31 41,-34 62,-82 62,-144l0 -110c0,-63 -21,-120 -62,-172 -43,-52 -95,-85 -156,-99l-216 -48c-61,-14 -113,-4 -156,30 -41,33 -62,81 -62,144l0 200z"/>
  <path id="1" class="fil8" d="M89339 14030l-977 -217c-20,-5 -36,-4 -46,3 -11,6 -16,16 -16,29 0,16 8,34 24,54l216 269c11,14 24,23 38,26 15,3 28,1 39,-8 11,-9 16,-21 16,-36 0,-13 -6,-27 -17,-42l-124 -156 847 188c17,4 30,1 39,-8 10,-9 15,-21 15,-35 0,-16 -5,-30 -14,-43 -9,-12 -22,-20 -40,-24z"/>
  <path id="2" class="fil8" d="M88416 13490l0 -389c0,-17 -6,-32 -17,-44 -11,-12 -24,-20 -37,-23 -16,-3 -29,-2 -40,5 -11,7 -16,20 -16,38l0 444c0,38 19,61 56,69l433 96c36,8 54,-6 54,-44l0 -221c0,-23 5,-44 13,-63 9,-18 20,-34 35,-46 15,-11 32,-19 52,-24 21,-4 42,-3 64,1l108 25c22,4 43,13 63,26 19,13 37,29 52,48 15,18 27,39 36,61 8,23 13,46 13,68l0 221c0,19 5,34 15,46 11,12 24,20 39,23 14,4 27,1 38,-7 10,-8 16,-20 16,-38l0 -221c0,-77 -27,-148 -80,-214 -53,-66 -117,-107 -192,-124l-108 -24c-75,-17 -139,-4 -192,39 -53,42 -80,102 -80,179l0 165 -325 -72z"/>
  <path class="fil8" d="M75980 29149l36 -163c4,-17 1,-31 -8,-40 -9,-10 -21,-14 -35,-14 -16,0 -30,5 -43,15 -13,10 -21,23 -24,39l-36 163 -261 0 356 -691c2,-5 4,-10 5,-16 3,-16 1,-29 -9,-39 -9,-10 -21,-15 -36,-15 -11,0 -22,4 -33,11 -12,7 -21,16 -28,29l-390 761c-2,2 -4,6 -6,11 -2,5 -4,10 -4,13 -7,29 9,44 48,44l334 0 -37 164c-4,17 -1,30 8,40 8,9 20,14 35,14 17,0 31,-5 43,-14 13,-9 21,-22 25,-40l36 -164 111 0c18,0 33,-5 45,-16 11,-10 19,-23 22,-38 3,-16 2,-29 -5,-39 -7,-10 -20,-15 -38,-15l-111 0z"/>
  <path id="1" class="fil8" d="M76905 29237l135 -609c15,-67 4,-123 -33,-170 -38,-46 -90,-70 -157,-70l-67 0c-67,0 -130,24 -190,72 -58,46 -94,103 -109,168l-135 609c-15,66 -3,123 34,170 37,45 90,68 159,68l66 0c69,0 131,-23 188,-68 58,-47 94,-104 109,-170zm-110 0c-8,36 -28,66 -60,92 -32,25 -66,38 -103,38l-66 0c-37,0 -66,-13 -86,-38 -21,-26 -27,-56 -19,-92l136 -609c8,-36 27,-67 59,-92 32,-25 66,-38 103,-38l66 0c37,0 66,13 86,38 21,25 27,56 19,92l-135 609z"/>
  <path id="2" class="fil8" d="M77308 28932l219 0c32,0 56,10 73,31 17,22 22,47 15,78l-48 216c-7,31 -24,57 -50,78 -26,21 -55,32 -87,32l-110 0c-32,0 -55,-11 -71,-32 -16,-21 -21,-47 -14,-78l73 -325zm43 -108c16,-33 32,-62 49,-88 77,-115 177,-196 303,-243 25,-10 40,-27 45,-49 3,-15 1,-28 -7,-39 -8,-11 -19,-17 -35,-17 -7,0 -15,2 -23,5 -76,29 -147,69 -212,122 -65,52 -120,112 -164,178 -60,91 -102,189 -125,293l-60 271c-14,62 -4,114 30,156 34,41 82,62 144,62l110 0c63,0 120,-21 172,-62 53,-42 86,-94 99,-156l48 -216c14,-61 4,-113 -30,-155 -33,-42 -81,-62 -144,-62l-200 0z"/>
  <path class="fil8" d="M75979 31250l36 -164c4,-16 1,-30 -8,-39 -9,-10 -21,-15 -35,-15 -17,0 -31,5 -43,16 -13,10 -21,23 -25,38l-36 164 -260 0 355 -691c2,-5 4,-10 5,-16 4,-16 1,-29 -8,-39 -9,-10 -21,-15 -37,-15 -10,0 -21,4 -33,11 -11,6 -20,16 -27,29l-391 761c-1,2 -3,6 -5,11 -3,5 -4,9 -5,13 -6,29 10,44 49,44l333 0 -36 164c-4,17 -2,30 7,39 9,10 21,15 36,15 16,0 31,-5 43,-14 12,-9 20,-22 24,-40l37 -164 110 0c19,0 34,-5 45,-16 12,-10 19,-23 22,-38 4,-16 2,-29 -5,-39 -7,-10 -19,-15 -38,-15l-110 0z"/>
  <path id="1" class="fil8" d="M76858 31032l-220 0c-31,0 -55,-10 -72,-31 -16,-20 -21,-46 -14,-77l48 -217c7,-31 23,-57 49,-77 26,-21 54,-31 86,-31l110 0c32,0 56,10 73,31 17,20 22,46 15,77 -16,73 -29,130 -38,171 -9,41 -16,71 -21,93 -5,21 -9,35 -11,42 -2,6 -4,12 -5,16l0 3zm-43 110c-7,15 -15,29 -24,44 -9,14 -17,28 -26,42 -36,57 -80,106 -132,148 -51,41 -107,73 -169,95 -13,4 -23,11 -30,20 -8,9 -12,18 -14,28 -4,14 -1,28 6,39 8,12 19,18 35,18 8,0 16,-2 23,-5 76,-28 146,-68 212,-120 65,-52 120,-113 164,-180 59,-90 100,-188 124,-294l60 -270c13,-61 3,-112 -31,-154 -33,-43 -81,-64 -144,-64l-110 0c-62,0 -119,21 -172,64 -53,42 -86,93 -99,154l-48 217c-14,61 -4,112 30,155 34,42 82,63 144,63l201 0z"/>
  <path id="2" class="fil8" d="M77681 31337l135 -608c15,-67 3,-123 -34,-170 -37,-47 -89,-70 -157,-70l-66 0c-67,0 -131,24 -190,72 -58,46 -94,102 -109,168l-135 608c-15,67 -4,124 33,170 38,46 91,69 159,69l67 0c68,0 131,-23 187,-69 58,-46 95,-103 110,-170zm-111 0c-8,36 -28,67 -59,93 -32,25 -66,38 -103,38l-67 0c-37,0 -65,-13 -86,-38 -20,-26 -26,-57 -18,-93l135 -608c8,-36 28,-67 60,-92 31,-25 65,-38 102,-38l67 0c37,0 65,13 86,38 20,25 26,56 18,92l-135 608z"/>
  <line class="fil5 str2" x1="83597" y1="23578" x2="83597" y2= "30255" />
  <line class="fil5 str2" x1="69458" y1="23456" x2="69458" y2= "30255" />
  <line class="fil5 str2" x1="90187" y1="2908" x2="81497" y2= "2908" />
  <rect class="fil1 str1" x="32568" y="22830" width="3921" height="1202"/>
  <polyline class="fil5 str0" points="31883,21134 33904,21134 32907,21869 "/>
  <polyline class="fil5 str0" points="33904,21134 33950,21279 33074,21934 "/>
  <line class="fil5 str0" x1="31154" y1="23718" x2="31389" y2= "23960" />
  <line class="fil5 str0" x1="31389" y1="23960" x2="31753" y2= "23954" />
  <line class="fil5 str0" x1="31389" y1="22886" x2="31389" y2= "23960" />
  <line class="fil5 str0" x1="31753" y1="23954" x2="31751" y2= "22261" />
  <path class="fil11 str0" d="M30791 21545l-379 0c-35,0 -64,28 -64,64l0 806c0,35 29,64 64,64l379 0c35,0 64,-29 64,-64l0 -806c0,-36 -29,-64 -64,-64z"/>
  <path class="fil11 str0" d="M31880 21763zm0 0l-235 0 0 498 235 0 0 -498z"/>
  <line class="fil5 str0" x1="31883" y1="21134" x2="31879" y2= "21891" />
  <path class="fil1 str0" d="M32907 22971zm0 0l-1028 0 0 -1080 1028 0 0 1080z"/>
  <path class="fil5 str0" d="M30855 21138zm0 0l790 0 0 1748 -790 0 0 -1748z"/>
  <line class="fil5 str0" x1="31154" y1="22901" x2="31154" y2= "23718" />
  <path class="fil11 str0" d="M30855 21545zm0 0l-144 0 0 934 144 0 0 -934z"/>
  <line class="fil5 str0" x1="29988" y1="22012" x2="32022" y2= "22012" />
  <polyline class="fil5 str0" points="33074,22047 33904,22047 32907,22783 "/>
  <path class="fil5 str0" d="M32907 21891zm0 0l167 0 0 619 -167 0 0 -619z"/>
  <polygon class="fil1 str0" points="32907,22971 33914,22222 33904,22047 32907,22783 "/>
  <path class="fil5 str0" d="M47541 21869zm0 0l-142 0 0 474 142 0 0 -474z"/>
  <path class="fil1 str0" d="M47733 21870zm0 0l-192 0 0 1101 192 0 0 -1101z"/>
  <path class="fil0 str0" d="M49206 22190c149,0 270,121 270,270 0,149 -121,270 -270,270 -150,0 -271,-121 -271,-270 0,-149 121,-270 271,-270z"/>
  <polyline class="fil5 str0" points="47733,21134 46544,21134 47541,21869 "/>
  <polyline class="fil5 str0" points="46544,21134 46535,21309 47399,21956 "/>
  <polyline class="fil5 str0" points="47399,22047 46544,22047 47541,22783 "/>
  <polygon class="fil1 str0" points="47541,22971 46535,22222 46544,22047 47541,22783 "/>
  <line class="fil5 str0" x1="48730" y1="22451" x2="49659" y2= "22451" />
  <line class="fil5 str0" x1="49198" y1="23107" x2="49198" y2= "21962" />
  <line class="fil5 str2" x1="33413" y1="28136" x2="33413" y2= "23522" />
  <line class="fil5 str2" x1="47024" y1="28136" x2="47024" y2= "23528" />
  <path class="fil1 str0" d="M27885 19023zm0 0l619 0 0 -5501 -619 0 0 5501z"/>
  <polygon class="fil1 str0" points="28747,12607 28504,12607 28504,19944 28747,19944 "/>
  <path class="fil1 str0" d="M28747 12607zm0 0l317 0 0 7337 -317 0 0 -7337z"/>
  <path class="fil1 str0" d="M29984 8832zm0 0l-920 0 0 14886 920 0 0 -14886z"/>
  <line class="fil5 str0" x1="28906" y1="12996" x2="28013" y2= "12996" />
  <path class="fil9 str0" d="M27885 14851zm0 0l-236 0 0 2903 236 0 0 -2903z"/>
  <path class="fil5 str0" d="M29524 13004zm0 0l-459 0 0 6542 459 0 0 -6542z"/>
  <path class="fil5 str0" d="M29524 12231zm0 0l-459 0 0 8089 459 0 0 -8089z"/>
  <path class="fil5 str0" d="M29524 9293zm0 0l-459 0 0 13964 459 0 0 -13964z"/>
  <path class="fil0 str0" d="M23036 14877zm0 0l4001 0 0 299 -4001 0 0 -299z"/>
  <polygon class="fil0 str0" points="27649,15033 27037,15033 27037,15176 23036,15176 23036,15033 22794,15033 22794,17525 27649,17525 "/>
  <line class="fil5 str0" x1="30802" y1="16272" x2="22154" y2= "16272" />
  <line class="fil5 str3" x1="23668" y1="14308" x2="23668" y2= "13040" />
  <line class="fil5 str3" x1="23668" y1="19504" x2="23668" y2= "18236" />
  <path class="fil8" d="M24906 13512l1533 0 0 -87 -1533 0c12,-87 60,-175 145,-264l-1383 307 1383 308c-85,-89 -133,-177 -145,-264z"/>
  <path class="fil8" d="M24906 19119l1533 0 0 -86 -1533 0c12,-88 60,-176 145,-265l-1383 308 1383 307c-85,-88 -133,-176 -145,-264z"/>
  <path class="fil8" d="M25693 12756l484 0 33 282c1,19 9,33 24,40 13,3 22,4 29,4 17,0 34,-6 50,-17 17,-12 28,-26 32,-44 1,-6 2,-15 1,-25l-141 -1172c-4,-37 -20,-55 -50,-55 -27,0 -52,18 -75,55l-660 1172c-6,8 -10,16 -12,25 -4,18 0,32 12,44 12,11 26,17 43,17 33,0 57,-15 72,-44l158 -282zm469 -131l-394 0 325 -576 69 576z"/>
  <path id="1" class="fil7 str4" d="M25693 12756l484 0 33 282c1,19 9,33 24,40 13,3 22,4 29,4 17,0 34,-6 50,-17 17,-12 28,-26 32,-44 1,-6 2,-15 1,-25l-141 -1172c-4,-37 -20,-55 -50,-55 -27,0 -52,18 -75,55l-660 1172c-6,8 -10,16 -12,25 -4,18 0,32 12,44 12,11 26,17 43,17 33,0 57,-15 72,-44l158 -282zm469 -131l-394 0 325 -576 69 576z"/>
  <path class="fil8" d="M25705 20369l483 0 33 282c1,19 9,32 25,40 12,2 21,4 28,4 17,0 34,-6 51,-18 16,-11 27,-26 31,-43 1,-7 2,-15 1,-25l-141 -1173c-3,-36 -20,-55 -50,-55 -27,0 -52,19 -75,55l-660 1173c-6,7 -10,16 -12,25 -3,17 0,32 12,43 12,12 26,18 43,18 33,0 57,-15 72,-44l159 -282zm468 -132l-394 0 325 -576 69 576z"/>
  <path id="1" class="fil7 str4" d="M25705 20369l483 0 33 282c1,19 9,32 25,40 12,2 21,4 28,4 17,0 34,-6 51,-18 16,-11 27,-26 31,-43 1,-7 2,-15 1,-25l-141 -1173c-3,-36 -20,-55 -50,-55 -27,0 -52,19 -75,55l-660 1173c-6,7 -10,16 -12,25 -3,17 0,32 12,43 12,12 26,18 43,18 33,0 57,-15 72,-44l159 -282zm468 -132l-394 0 325 -576 69 576z"/>
  <line class="fil5 str0" x1="80953" y1="2482" x2="80953" y2= "3732" />
  <line class="fil5 str0" x1="72832" y1="2482" x2="72832" y2= "3732" />
  <line class="fil5 str1" x1="47462" y1="24782" x2="47462" y2= "25199" />
  <line class="fil5 str1" x1="47462" y1="24415" x2="47462" y2= "24031" />
  <line class="fil5 str1" x1="46586" y1="24782" x2="46586" y2= "25199" />
  <line class="fil5 str1" x1="46586" y1="24415" x2="46586" y2= "24031" />
  <line class="fil5 str1" x1="33851" y1="24782" x2="33851" y2= "25199" />
  <line class="fil5 str1" x1="33851" y1="24415" x2="33851" y2= "24031" />
  <line class="fil5 str1" x1="32975" y1="24782" x2="32975" y2= "25199" />
  <line class="fil5 str1" x1="32975" y1="24415" x2="32975" y2= "24031" />
  <path class="fil8" d="M84041 27735l1384 -308c-85,89 -134,177 -146,264l3953 0 0 87 -3953 0c12,87 61,175 146,264l-1384 -307z"/>
  <path class="fil8" d="M87671 26749c34,-42 55,-87 66,-134 17,-77 1,-144 -47,-200 -48,-57 -115,-85 -200,-85 -46,0 -92,12 -139,37 -46,25 -87,57 -122,98 -9,9 -14,19 -16,30 -4,15 -1,27 9,37 10,10 22,15 36,15 20,0 37,-8 51,-25 23,-26 49,-46 77,-61 28,-14 57,-22 88,-22 53,0 94,17 125,51 29,33 39,74 28,122 -6,28 -19,55 -39,81l-552 639c-12,15 -19,28 -22,41 -6,29 11,43 51,43l443 0c18,0 33,-5 45,-17 12,-11 20,-23 23,-37 3,-16 1,-29 -6,-39 -6,-10 -19,-15 -38,-15l-344 0 483 -559z"/>
  <path id="1" class="fil8" d="M88358 27090l36 -163c4,-17 1,-30 -8,-40 -9,-9 -21,-14 -35,-14 -16,0 -31,5 -43,15 -13,10 -21,23 -24,39l-37 163 -260 0 355 -691c3,-5 4,-10 5,-15 4,-16 1,-29 -8,-39 -9,-10 -21,-15 -36,-15 -11,0 -22,3 -34,10 -11,7 -20,17 -27,29l-390 761c-2,2 -4,6 -6,11 -2,6 -4,10 -5,13 -6,30 10,44 49,44l333 0 -36 164c-4,17 -1,30 7,40 9,9 21,14 36,14 16,0 31,-4 43,-13 12,-9 20,-23 24,-41l37 -164 110 0c19,0 34,-5 45,-15 12,-11 19,-24 23,-39 3,-15 1,-28 -6,-38 -7,-11 -19,-16 -38,-16l-110 0z"/>
  <g>
   <path class="fil5 str1" d="M86807 26501l-128 128c-171,-171 -447,-171 -618,0 -170,170 -170,447 0,617l-128 128"/>
   <path class="fil5 str5" d="M86370 26938l309 -309c171,170 171,447 0,617 -171,171 -447,171 -618,0l309 -308z"/>
  </g>
  <path class="fil8" d="M58310 16518l-163 -36c-17,-4 -30,-1 -40,8 -9,9 -14,21 -14,35 0,16 5,31 15,43 10,13 23,21 39,24l163 37 0 260 -691 -356c-5,-2 -10,-4 -15,-5 -16,-3 -29,0 -39,9 -10,9 -15,21 -15,36 0,11 3,22 10,33 7,12 17,21 29,28l761 390c2,2 6,4 11,6 6,2 10,4 13,4 30,7 44,-9 44,-48l0 -333 164 36c17,4 30,1 40,-8 9,-8 14,-20 14,-35 0,-17 -4,-31 -13,-43 -9,-12 -23,-21 -41,-25l-164 -36 0 -111c0,-18 -5,-33 -15,-45 -11,-11 -24,-19 -39,-22 -15,-3 -28,-2 -39,5 -10,7 -15,20 -15,38l0 111z"/>
  <path id="1" class="fil8" d="M58093 15639l0 219c0,32 -11,56 -31,72 -21,17 -47,22 -77,15l-218 -48c-31,-7 -56,-24 -77,-49 -21,-26 -31,-55 -31,-86l0 -111c0,-31 10,-55 31,-72 21,-17 46,-22 77,-16 73,17 130,29 172,38 40,9 71,17 92,22 21,5 35,9 42,11 7,2 12,3 17,4l3 1zm109 42c15,8 30,16 44,25 14,8 28,17 42,25 57,37 107,81 148,132 41,52 73,108 95,169 4,13 11,23 20,31 9,7 18,12 28,14 15,3 28,1 40,-7 11,-7 17,-19 17,-34 0,-9 -2,-17 -5,-24 -27,-75 -67,-146 -120,-211 -52,-65 -112,-120 -180,-164 -90,-59 -188,-101 -294,-124l-270 -60c-60,-14 -112,-3 -154,31 -42,32 -63,80 -63,143l0 111c0,61 21,119 63,171 42,53 94,86 154,100l218 48c60,14 111,3 154,-31 42,-34 63,-81 63,-143l0 -202z"/>
  <path id="2" class="fil8" d="M58398 14816l-609 -135c-66,-15 -123,-4 -170,34 -46,37 -69,89 -69,156l0 67c0,67 23,130 71,190 47,58 103,94 168,109l609 135c66,15 123,4 170,-34 45,-37 68,-90 68,-159l0 -66c0,-68 -23,-131 -68,-188 -47,-58 -104,-94 -170,-109zm0 111c36,8 66,27 92,59 25,32 38,66 38,103l0 66c0,37 -13,66 -38,86 -26,21 -56,27 -92,19l-609 -135c-36,-8 -66,-28 -92,-60 -25,-32 -38,-66 -38,-103l0 -66c0,-37 13,-66 38,-86 26,-21 56,-27 92,-19l609 136z"/>
  <g>
   <path class="fil5 str1" d="M57721 17269l128 128c-171,170 -171,447 0,617 170,171 447,171 617,0l128 128"/>
   <path class="fil5 str5" d="M58157 17706l-308 -309c170,-171 447,-171 617,0 171,170 171,447 0,617l-309 -308z"/>
  </g>
  <polygon class="fil0 str1" points="70704,21486 70906,21602 71108,21719 71108,21952 71108,22185 70906,22301 70704,22418 70503,22301 70301,22185 70301,21952 70301,21719 70503,21602 "/>
  <circle class="fil5 str5" cx="76459" cy="16273" r="2751"/>
  <line class="fil5 str0" x1="76517" y1="26910" x2="76517" y2= "5592" />
  <path class="fil0 str0" d="M28464 17636l-238 0c-22,0 -40,16 -40,37l0 470c0,21 18,37 40,37l238 0c22,0 40,-16 40,-37l0 -470c0,-21 -18,-37 -40,-37z"/>
  <line class="fil5 str0" x1="28892" y1="17908" x2="28000" y2= "17908" />
  <line class="fil5 str0" x1="70213" y1="22435" x2="71196" y2= "21469" />
  <line class="fil5 str0" x1="70263" y1="21508" x2="71146" y2= "22395" />
  <polygon class="fil0 str1" points="82167,21486 82369,21602 82571,21719 82571,21952 82571,22185 82369,22301 82167,22418 81966,22301 81764,22185 81764,21952 81764,21719 81966,21602 "/>
  <line class="fil5 str0" x1="82649" y1="22444" x2="81688" y2= "21457" />
  <line class="fil5 str0" x1="81723" y1="22390" x2="82614" y2= "21512" />
  <polygon class="fil0 str1" points="70729,10103 70931,10219 71132,10336 71132,10569 71132,10802 70931,10918 70729,11035 70527,10918 70325,10802 70325,10569 70325,10336 70527,10219 "/>
  <polygon class="fil0 str1" points="82215,10114 82417,10231 82618,10347 82618,10580 82618,10813 82417,10930 82215,11046 82013,10930 81811,10813 81811,10580 81811,10347 82013,10231 "/>
  <line class="fil5 str0" x1="82731" y1="10103" x2="81735" y2= "11056" />
  <line class="fil5 str0" x1="82648" y1="11043" x2="81778" y2= "10144" />
  <line class="fil5 str0" x1="70231" y1="10058" x2="71193" y2= "11045" />
  <line class="fil5 str0" x1="71172" y1="10132" x2="70280" y2= "11011" />
  <polyline class="fil5 str0" points="29737,8439 29933,8547 29964,8709 29906,8832 "/>
  <polygon class="fil0 str0" points="29737,8832 29311,8832 29383,8635 29664,8635 "/>
  <polygon class="fil0 str0" points="29737,8439 29311,8439 29383,8635 29664,8635 "/>
  <line class="fil5 str0" x1="30711" y1="22239" x2="30348" y2= "22239" />
  <line class="fil5 str0" x1="30711" y1="21778" x2="30348" y2= "21778" />
  <circle class="fil0 str6" cx="6382" cy="16274" r="2294"/>
  <path class="fil7 str2" d="M5844 14059l0 -2445m1065 2445l0 -2445"/>
  <line class="fil7 str2" x1="8676" y1="16274" x2="8681" y2= "21690" />
  <line class="fil7 str2" x1="4077" y1="16274" x2="4082" y2= "21690" />
  <line class="fil5 str7" x1="6369" y1="18581" x2="6389" y2= "18561" />
  <line class="fil5 str7" x1="6843" y1="16366" x2="6909" y2= "16274" />
  <path class="fil8" d="M5844 12087l-1383 307c84,-88 133,-176 145,-264l-2782 0 0 -86 2782 0c-12,-88 -61,-176 -145,-265l1383 308z"/>
  <line class="fil5 str5" x1="6909" y1="12087" x2="5844" y2= "12087" />
  <path class="fil8" d="M8147 12130l736 0 0 -86 -736 0c12,-88 61,-176 146,-265l-1384 308 1384 307c-85,-88 -134,-176 -146,-264z"/>
  <path class="fil8" d="M8678 21218l-1383 307c85,-89 133,-177 145,-264l-2122 0c12,87 60,175 145,264l-1384 -307 1384 -308c-85,89 -133,177 -145,264l2122 0c-12,-87 -60,-175 -145,-264l1383 308z"/>
  <g>
   <line class="fil5 str8" x1="7046" y1="18490" x2="8584" y2= "16952" />
   <polyline class="fil5 str8" points="8676,16274 8656,16274 6389,18561 "/>
   <polyline class="fil5 str8" points="8610,15755 8065,16274 6389,17970 "/>
   <line class="fil5 str8" x1="5844" y1="18515" x2="6389" y2= "17970" />
   <line class="fil5 str8" x1="8472" y1="15322" x2="6389" y2= "17384" />
   <line class="fil5 str8" x1="5417" y1="18378" x2="6389" y2= "17384" />
   <line class="fil5 str8" x1="6909" y1="16274" x2="8248" y2= "14940" />
   <line class="fil5 str8" x1="5029" y1="18154" x2="6389" y2= "16819" />
   <line class="fil5 str8" x1="6685" y1="15933" x2="7973" y2= "14645" />
   <line class="fil5 str8" x1="4734" y1="17884" x2="6028" y2= "16590" />
   <line class="fil5 str8" x1="6114" y1="15913" x2="6389" y2= "15643" />
   <line class="fil5 str8" x1="5732" y1="16274" x2="6002" y2= "16025" />
   <line class="fil5 str8" x1="6389" y1="15643" x2="7658" y2= "14375" />
   <line class="fil5 str8" x1="4464" y1="17563" x2="5732" y2= "16274" />
   <polyline class="fil5 str8" points="7271,14171 6389,15052 5142,16274 "/>
   <line class="fil5 str8" x1="4261" y1="17181" x2="5142" y2= "16274" />
   <polyline class="fil5 str8" points="6410,14441 6389,14487 4576,16274 "/>
   <line class="fil5 str8" x1="4123" y1="16728" x2="4576" y2= "16274" />
   <line class="fil5 str8" x1="4077" y1="16208" x2="5844" y2= "14420" />
   <line class="fil5 str8" x1="4235" y1="15459" x2="5549" y2= "14151" />
   <line class="fil5 str8" x1="6389" y1="16819" x2="6455" y2= "16748" />
  </g>
  <rect class="fil0 str6" x="5844" y="13789" width="1065" height="652"/>
  <g>
   <line class="fil5 str8" x1="6909" y1="14079" x2="6639" y2= "13789" />
   <line class="fil5 str8" x1="6705" y1="14441" x2="6048" y2= "13789" />
   <line class="fil5 str8" x1="6140" y1="14441" x2="5844" y2= "14171" />
  </g>
  <line class="fil5 str2" x1="6909" y1="14441" x2="11311" y2= "14441" />
  <circle class="fil4 str6" cx="6389" cy="16274" r="460"/>
  <line class="fil5 str2" x1="6389" y1="18975" x2="6389" y2= "13396" />
  <line class="fil5 str2" x1="9103" y1="16274" x2="3656" y2= "16274" />
  <path class="fil12" d="M6730 16568l1249 670c-123,12 -217,47 -283,105l1812 1562 7488 0 0 87 -7520 0 -1836 -1583c-48,74 -69,173 -63,295l-847 -1136z"/>
  <line class="fil5 str2" x1="6072" y1="16001" x2="6706" y2= "16548" />
  <path class="fil12" d="M6072 16001l-1249 -671c122,-11 216,-46 283,-105l-664 -572 56 -66 664 573c49,-75 69,-173 63,-295l847 1136z"/>
  <path class="fil8" d="M10853 13789l-307 -1384c89,85 176,134 264,146l0 -2276 87 0 0 2276c87,-12 175,-61 264,-146l-308 1384z"/>
  <line class="fil5 str5" x1="10853" y1="14441" x2="10853" y2= "13789" />
  <line class="fil5 str2" x1="6909" y1="13789" x2="11311" y2= "13789" />
  <line class="fil5 str2" x1="6369" y1="18581" x2="1432" y2= "18581" />
  <path class="fil8" d="M1905 18581l-307 -1383c88,84 176,133 264,145l0 -1664c-88,12 -176,61 -264,146l307 -1384 308 1384c-89,-85 -177,-134 -265,-146l0 1664c88,-12 176,-61 265,-145l-308 1383z"/>
  <line class="fil5 str2" x1="5849" y1="14441" x2="1447" y2= "14441" />
  <path class="fil8" d="M10810 15679l0 736 87 0 0 -736c87,12 175,61 264,146l-308 -1384 -307 1384c89,-85 176,-134 264,-146z"/>
  <path class="fil8" d="M10616 18518l216 -972c4,-19 3,-34 -5,-46 -8,-12 -18,-17 -31,-17 -22,0 -42,11 -61,35l-390 467 -183 -467c-9,-24 -23,-35 -44,-35 -14,0 -27,5 -40,17 -13,12 -22,27 -26,46l-216 972c-4,17 -1,31 8,40 9,10 22,14 37,14 16,0 30,-4 43,-13 12,-9 20,-23 24,-41l172 -775 148 375c9,23 22,35 39,35 19,0 37,-12 57,-35l312 -375 -172 775c-4,17 -1,31 8,40 9,10 21,14 35,14 16,0 31,-4 44,-13 13,-9 21,-23 25,-41z"/>
  <path id="1" class="fil8" d="M11487 17905c33,-42 55,-87 66,-133 17,-78 1,-144 -47,-200 -48,-58 -115,-86 -200,-86 -46,0 -92,12 -139,37 -46,25 -87,58 -122,98 -9,9 -14,19 -17,30 -3,15 0,27 10,37 10,10 21,15 36,15 20,0 37,-8 51,-25 23,-25 48,-46 77,-60 28,-15 57,-23 87,-23 53,0 95,17 126,51 29,33 39,74 28,123 -6,27 -19,54 -39,81l-552 638c-12,15 -19,29 -22,41 -7,29 10,43 50,43l444 0c18,0 32,-5 45,-16 12,-11 19,-24 22,-38 4,-16 2,-29 -5,-39 -7,-10 -19,-15 -38,-15l-344 0 483 -559z"/>
  <path id="2" class="fil8" d="M12209 18334l136 -608c14,-67 3,-124 -34,-170 -37,-47 -90,-70 -157,-70l-67 0c-67,0 -130,24 -189,71 -58,47 -95,103 -109,169l-136 608c-14,67 -3,123 34,170 38,46 91,68 159,68l67 0c68,0 130,-22 187,-68 58,-47 95,-103 109,-170zm-110 0c-8,36 -28,67 -60,92 -31,26 -66,38 -102,38l-67 0c-37,0 -65,-12 -86,-38 -20,-25 -26,-56 -18,-92l135 -608c8,-36 28,-67 59,-92 32,-26 66,-39 103,-39l67 0c37,0 65,13 86,39 20,25 26,56 18,92l-135 608z"/>
  <path id="3" class="fil8" d="M13708 17905c33,-42 55,-87 65,-133 17,-78 2,-144 -47,-200 -48,-58 -114,-86 -200,-86 -45,0 -92,12 -138,37 -47,25 -88,58 -123,98 -8,9 -14,19 -16,30 -4,15 0,27 9,37 10,10 22,15 36,15 21,0 38,-8 51,-25 23,-25 49,-46 77,-60 28,-15 57,-23 88,-23 53,0 95,17 125,51 30,33 39,74 28,123 -6,27 -19,54 -39,81l-552 638c-12,15 -19,29 -22,41 -6,29 11,43 51,43l444 0c17,0 32,-5 44,-16 12,-11 20,-24 23,-38 3,-16 2,-29 -5,-39 -7,-10 -20,-15 -38,-15l-345 0 484 -559z"/>
  <path id="4" class="fil8" d="M13950 18518l12 -54c4,-18 2,-31 -7,-41 -9,-10 -21,-14 -36,-14 -15,0 -29,5 -42,15 -13,10 -22,23 -26,40l-9 45 -103 213c-2,5 -4,10 -5,14 -3,16 -1,29 9,39 9,10 21,15 36,15 30,0 51,-14 63,-41l103 -218 5 -13z"/>
  <path id="5" class="fil8" d="M14483 17595l389 0c17,0 32,-5 44,-16 13,-11 20,-24 23,-38 4,-15 2,-29 -5,-39 -7,-11 -19,-16 -38,-16l-443 0c-38,0 -61,18 -70,55l-96 434c-8,36 7,54 45,54l221 0c23,0 43,4 62,13 19,8 34,20 46,35 12,15 20,32 24,52 4,20 4,41 -1,64l-24 108c-5,22 -14,43 -27,62 -13,20 -29,38 -47,53 -19,15 -40,27 -62,36 -23,8 -45,12 -68,12l-221 0c-18,0 -34,6 -46,16 -12,11 -20,23 -23,38 -3,15 -1,28 7,38 8,11 21,16 38,16l221 0c77,0 148,-26 214,-79 66,-53 108,-117 124,-192l24 -108c17,-75 4,-140 -38,-193 -43,-52 -102,-79 -179,-79l-166 0 72 -326z"/>
  <path id="6" class="fil8" d="M15832 18029l220 0c31,0 55,11 72,32 17,21 22,47 15,78l-48 216c-7,30 -23,56 -49,78 -27,21 -56,31 -87,31l-111 0c-31,0 -55,-10 -71,-31 -16,-22 -20,-48 -13,-78l72 -326zm44 -108c16,-33 32,-62 48,-87 77,-116 178,-197 303,-243 25,-11 40,-27 45,-50 3,-14 1,-27 -7,-38 -8,-12 -19,-17 -34,-17 -8,0 -16,1 -24,5 -76,28 -146,69 -211,121 -66,53 -120,112 -165,179 -60,91 -102,188 -125,292l-60 272c-14,61 -4,113 30,155 35,42 82,62 144,62l111 0c63,0 120,-20 171,-62 53,-42 86,-94 100,-155l48 -216c14,-62 3,-114 -31,-156 -33,-41 -81,-62 -143,-62l-200 0z"/>
  <path id="7" class="fil8" d="M16983 18334l136 -608c14,-67 3,-124 -34,-170 -37,-47 -90,-70 -157,-70l-66 0c-68,0 -131,24 -190,71 -58,47 -95,103 -109,169l-136 608c-14,67 -3,123 34,170 38,46 91,68 159,68l67 0c68,0 130,-22 187,-68 58,-47 95,-103 109,-170zm-110 0c-8,36 -28,67 -60,92 -31,26 -66,38 -102,38l-67 0c-37,0 -65,-12 -86,-38 -20,-25 -26,-56 -18,-92l135 -608c8,-36 28,-67 59,-92 32,-26 66,-39 103,-39l67 0c37,0 65,13 86,39 20,25 26,56 18,92l-135 608z"/>
  <g>
   <line class="fil5 str1" x1="12519" y1="17952" x2="12828" y2= "18300" />
   <line class="fil5 str1" x1="12866" y1="17952" x2="12480" y2= "18300" />
  </g>
  <g>
   <line class="fil5 str1" x1="15409" y1="17952" x2="15023" y2= "18300" />
   <line class="fil5 str1" x1="15061" y1="17952" x2="15371" y2= "18300" />
  </g>
  <path class="fil8" d="M10423 11634l-977 -217c-20,-4 -35,-4 -46,3 -10,6 -16,16 -16,29 0,16 8,34 24,54l216 269c12,14 25,23 38,26 15,4 28,1 39,-8 11,-9 17,-21 17,-36 0,-13 -6,-27 -18,-42l-123 -155 846 188c17,3 30,1 40,-9 9,-9 14,-20 14,-35 0,-16 -4,-30 -13,-42 -9,-13 -23,-21 -41,-25z"/>
  <path id="1" class="fil8" d="M10423 11078l-977 -217c-20,-4 -35,-3 -46,3 -10,6 -16,16 -16,29 0,16 8,34 24,54l216 269c12,15 25,23 38,26 15,4 28,1 39,-8 11,-9 17,-21 17,-36 0,-13 -6,-27 -18,-41l-123 -156 846 188c17,4 30,1 40,-8 9,-10 14,-21 14,-35 0,-17 -4,-31 -13,-43 -9,-13 -23,-21 -41,-25z"/>
  <path class="fil8" d="M2707 11657l217 -977c4,-20 3,-36 -3,-46 -6,-11 -16,-16 -29,-16 -16,0 -34,8 -54,24l-269 216c-15,11 -23,24 -26,38 -4,15 -1,28 8,39 9,11 21,17 36,17 13,0 27,-6 41,-18l156 -124 -188 847c-4,17 -1,30 8,40 10,9 21,14 35,14 17,0 31,-5 43,-14 12,-9 21,-22 25,-40z"/>
  <path id="1" class="fil8" d="M3395 11060c-51,0 -88,-17 -112,-51 -20,-30 -26,-68 -15,-113 9,-45 31,-82 65,-111 39,-34 84,-51 135,-51 52,0 90,17 114,51 20,29 25,66 15,111 -10,45 -32,83 -65,113 -39,34 -85,51 -137,51zm-24 108c71,0 122,22 154,68 27,40 34,90 21,149 -14,61 -43,110 -89,150 -50,45 -111,68 -182,68 -71,0 -121,-23 -151,-68 -28,-41 -35,-91 -22,-150 13,-60 43,-110 88,-149 51,-46 111,-68 181,-68zm199 -61c36,-25 66,-56 90,-94 24,-37 40,-76 50,-117 16,-74 7,-136 -29,-186 -38,-57 -101,-86 -189,-86 -88,0 -163,29 -225,86 -58,50 -95,112 -112,186 -9,41 -9,80 -1,117 8,36 24,67 49,93 -56,29 -103,69 -139,118 -37,49 -61,103 -74,161 -20,89 -9,164 32,226 47,66 123,100 229,100 106,0 197,-34 274,-102 69,-61 113,-136 133,-224 12,-57 12,-110 -3,-160 -14,-50 -43,-89 -85,-118z"/>
  <path class="fil8" d="M552 17006l0 -388c0,-17 -6,-32 -17,-44 -11,-13 -23,-20 -37,-23 -16,-4 -29,-2 -40,5 -10,6 -16,19 -16,38l0 443c0,38 19,61 56,70l434 96c36,8 54,-7 54,-45l0 -221c0,-23 4,-44 12,-62 9,-19 20,-34 35,-46 15,-12 33,-20 53,-24 20,-4 41,-4 63,1l108 24c23,5 43,14 63,27 20,13 37,29 52,47 16,19 28,39 36,62 9,22 13,45 13,68l0 221c0,18 5,33 16,46 10,12 23,19 38,23 15,3 27,1 38,-7 11,-8 16,-21 16,-38l0 -221c0,-77 -27,-149 -79,-215 -53,-66 -118,-107 -193,-124l-108 -24c-75,-16 -139,-3 -192,39 -53,42 -79,102 -79,179l0 166 -326 -73z"/>
  <path id="1" class="fil8" d="M878 16081c0,51 -17,88 -51,112 -30,20 -67,26 -113,16 -44,-10 -81,-32 -111,-66 -34,-39 -51,-84 -51,-135 0,-52 17,-90 51,-114 30,-20 67,-25 111,-15 46,10 83,32 113,65 34,39 51,85 51,137zm108 24c0,-71 22,-122 68,-154 40,-27 90,-34 149,-21 61,14 110,43 150,89 45,50 68,111 68,182 0,71 -23,121 -68,151 -41,28 -90,35 -150,22 -60,-13 -110,-43 -149,-88 -46,-51 -68,-111 -68,-181zm-61 -199c-25,-36 -56,-66 -93,-90 -37,-24 -77,-40 -118,-50 -74,-16 -136,-7 -186,29 -57,38 -86,101 -86,189 0,88 29,163 86,225 50,58 112,95 186,112 41,9 80,9 117,1 36,-8 67,-24 93,-49 29,56 69,103 118,139 49,37 103,61 161,74 89,20 164,9 226,-32 67,-47 100,-123 100,-229 0,-106 -34,-197 -102,-274 -61,-69 -136,-113 -224,-133 -57,-12 -110,-12 -160,3 -50,14 -89,43 -118,85z"/>
  <path class="fil8" d="M5008 8052l484 0 33 282c1,20 9,33 24,40 12,3 22,4 28,4 17,0 34,-5 51,-17 17,-11 27,-26 31,-44 2,-6 2,-14 2,-24l-141 -1173c-4,-37 -21,-55 -51,-55 -27,0 -52,18 -74,55l-661 1173c-5,7 -9,15 -11,24 -4,18 0,33 12,44 11,12 26,17 43,17 32,0 56,-14 72,-44l158 -282zm468 -131l-394 0 325 -576 69 576z"/>
  <path id="1" class="fil8" d="M6588 7989c21,0 39,-6 54,-20 14,-13 23,-28 27,-44 4,-19 2,-35 -6,-47 -8,-12 -24,-18 -46,-18l-532 0c-22,0 -41,6 -55,19 -15,13 -24,28 -28,46 -4,17 -1,33 8,45 10,13 25,19 46,19l532 0z"/>
  <path id="2" class="fil8" d="M7140 8052l484 0 33 282c1,20 9,33 24,40 12,3 22,4 28,4 17,0 34,-5 51,-17 17,-11 27,-26 31,-44 2,-6 2,-14 2,-24l-141 -1173c-4,-37 -21,-55 -51,-55 -27,0 -52,18 -74,55l-661 1173c-5,7 -9,15 -11,24 -4,18 0,33 12,44 11,12 26,17 43,17 32,0 56,-14 72,-44l158 -282zm468 -131l-394 0 325 -576 69 576z"/>
  <path id="3" class="fil7 str4" d="M5008 8052l484 0 33 282c1,20 9,33 24,40 12,3 22,4 28,4 17,0 34,-5 51,-17 17,-11 27,-26 31,-44 2,-6 2,-14 2,-24l-141 -1173c-4,-37 -21,-55 -51,-55 -27,0 -52,18 -74,55l-661 1173c-5,7 -9,15 -11,24 -4,18 0,33 12,44 11,12 26,17 43,17 32,0 56,-14 72,-44l158 -282zm468 -131l-394 0 325 -576 69 576z"/>
  <path id="4" class="fil7 str4" d="M6588 7989c21,0 39,-6 54,-20 14,-13 23,-28 27,-44 4,-19 2,-35 -6,-47 -8,-12 -24,-18 -46,-18l-532 0c-22,0 -41,6 -55,19 -15,13 -24,28 -28,46 -4,17 -1,33 8,45 10,13 25,19 46,19l532 0z"/>
  <path id="5" class="fil7 str4" d="M7140 8052l484 0 33 282c1,20 9,33 24,40 12,3 22,4 28,4 17,0 34,-5 51,-17 17,-11 27,-26 31,-44 2,-6 2,-14 2,-24l-141 -1173c-4,-37 -21,-55 -51,-55 -27,0 -52,18 -74,55l-661 1173c-5,7 -9,15 -11,24 -4,18 0,33 12,44 11,12 26,17 43,17 32,0 56,-14 72,-44l158 -282zm468 -131l-394 0 325 -576 69 576z"/>
  <path class="fil8" d="M6640 20310l220 0c31,0 55,11 72,32 17,21 22,47 15,78l-48 216c-6,30 -23,56 -49,77 -27,22 -56,32 -87,32l-111 0c-31,0 -55,-10 -71,-32 -15,-21 -20,-47 -13,-77l72 -326zm44 -108c16,-33 32,-62 48,-87 77,-116 178,-197 303,-243 25,-11 40,-27 45,-50 4,-15 1,-28 -7,-39 -7,-11 -19,-16 -34,-16 -8,0 -16,1 -24,4 -76,29 -146,70 -211,122 -66,52 -120,112 -164,179 -61,91 -103,188 -126,292l-60 272c-14,61 -3,113 30,155 35,42 83,62 144,62l111 0c63,0 120,-20 171,-62 53,-42 86,-94 100,-155l48 -216c14,-62 4,-114 -30,-156 -33,-41 -81,-62 -144,-62l-200 0z"/>
  <path id="1" class="fil8" d="M7512 19876l389 0c17,0 32,-5 44,-16 12,-12 20,-24 23,-38 3,-16 2,-29 -5,-39 -7,-11 -20,-16 -38,-16l-444 0c-38,0 -61,18 -69,55l-97 434c-8,36 7,54 45,54l221 0c23,0 44,4 63,13 18,8 34,20 45,35 12,14 20,32 25,52 4,20 3,41 -2,64l-24 108c-4,22 -13,43 -26,62 -14,20 -29,37 -48,53 -18,15 -39,27 -61,35 -23,9 -46,13 -68,13l-221 0c-19,0 -34,5 -46,16 -12,11 -20,23 -23,38 -4,15 -1,28 7,38 8,11 20,16 38,16l221 0c77,0 148,-26 214,-79 66,-53 107,-117 124,-192l24 -108c17,-76 4,-140 -39,-193 -42,-53 -102,-79 -179,-79l-165 0 72 -326z"/>
  <g>
   <path class="fil5 str1" d="M5334 20826l128 -128c170,171 447,171 617,0 171,-170 171,-447 0,-618l128 -127"/>
   <path class="fil5 str5" d="M5771 20389l-309 309c-171,-170 -171,-447 0,-618 170,-170 447,-170 617,0l-308 309z"/>
  </g>
 </g>
</svg>
